<?xml version="1.0" encoding="utf-8"?>
<!-- Generator: Adobe Illustrator 27.8.1, SVG Export Plug-In . SVG Version: 6.00 Build 0)  -->
<svg version="1.1" id="Layer_1" xmlns="http://www.w3.org/2000/svg" xmlns:xlink="http://www.w3.org/1999/xlink" x="0px" y="0px"
	 viewBox="0 0 55 60" style="enable-background:new 0 0 55 60;" xml:space="preserve">
<style type="text/css">
	.st0{fill:#C9A484;}
</style>
<g>
	<g>
		<g>
			<g>
				<path class="st0" d="M52.5,56.6h-1.6V6.3c0-0.5-0.4-1-1-1H32c-0.5,0-1,0.4-1,1v4.2h-1.9V6.3c0-0.5-0.4-1-1-1H24V2.4
					c0-0.5-0.4-1-1-1c-0.5,0-1,0.4-1,1v2.9h-4.2c-0.5,0-1,0.4-1,1v4.2H14c-0.5,0-1,0.4-1,1v8H5c-0.5,0-1,0.4-1,1v36.3H2.5
					c-0.5,0-1,0.4-1,1s0.4,1,1,1h50.1c0.5,0,1-0.4,1-1C53.5,57.1,53.1,56.6,52.5,56.6z M18.8,7.2h8.3v3.2h-8.3V7.2z M15.6,56.6H15
					V55c0-0.5-0.4-1-1-1c-0.5,0-1,0.4-1,1v1.6h-0.6v-3.2h3.2V56.6z M22,31.9v1.7v23.1h-4.5v-4.2c0-0.5-0.4-1-1-1h-5.1
					c-0.5,0-1,0.4-1,1v4.2H6V21.3h16L22,31.9L22,31.9z M23,19.4h-8v-7.1h16V31H24v-3.2h2.9c0.5,0,1-0.4,1-1c0-0.5-0.4-1-1-1H24v-3.2
					h2.9c0.5,0,1-0.4,1-1c0-0.5-0.4-1-1-1H24v-0.3C24,19.8,23.5,19.4,23,19.4z M40,56.6H24V33.6v-0.7h16V56.6z M49,56.6h-7.1V31.9
					v-1.3c0-0.5-0.4-1-1-1s-1,0.4-1,1V31h-1.9v-0.3c0-0.5-0.4-1-1-1s-1,0.4-1,1V31H33V11.4V7.2h16L49,56.6L49,56.6z"/>
				<path class="st0" d="M28.1,54.7c0.5,0,1-0.4,1-1v-18c0-0.5-0.4-1-1-1s-1,0.4-1,1v18C27.2,54.3,27.6,54.7,28.1,54.7z"/>
				<path class="st0" d="M32,54.7c0.5,0,1-0.4,1-1v-18c0-0.5-0.4-1-1-1c-0.5,0-1,0.4-1,1v18C31,54.3,31.5,54.7,32,54.7z"/>
				<path class="st0" d="M35.8,54.7c0.5,0,1-0.4,1-1v-18c0-0.5-0.4-1-1-1s-1,0.4-1,1v18C34.9,54.3,35.3,54.7,35.8,54.7z"/>
				<path class="st0" d="M37.1,13.6c0.5,0,1-0.4,1-1v-1.3c0-0.5-0.4-1-1-1s-1,0.4-1,1v1.3C36.2,13.2,36.6,13.6,37.1,13.6z"/>
				<path class="st0" d="M41,13.6c0.5,0,1-0.4,1-1v-1.3c0-0.5-0.4-1-1-1s-1,0.4-1,1v1.3C40,13.2,40.4,13.6,41,13.6z"/>
				<path class="st0" d="M44.8,13.6c0.5,0,1-0.4,1-1v-1.3c0-0.5-0.4-1-1-1s-1,0.4-1,1v1.3C43.9,13.2,44.3,13.6,44.8,13.6z"/>
				<path class="st0" d="M37.1,20.1c0.5,0,1-0.4,1-1v-1.3c0-0.5-0.4-1-1-1s-1,0.4-1,1v1.3C36.2,19.6,36.6,20.1,37.1,20.1z"/>
				<path class="st0" d="M41,20.1c0.5,0,1-0.4,1-1v-1.3c0-0.5-0.4-1-1-1s-1,0.4-1,1v1.3C40,19.6,40.4,20.1,41,20.1z"/>
				<path class="st0" d="M44.8,20.1c0.5,0,1-0.4,1-1v-1.3c0-0.5-0.4-1-1-1s-1,0.4-1,1v1.3C43.9,19.6,44.3,20.1,44.8,20.1z"/>
				<path class="st0" d="M37.1,26.5c0.5,0,1-0.4,1-1v-1.3c0-0.5-0.4-1-1-1s-1,0.4-1,1v1.3C36.2,26,36.6,26.5,37.1,26.5z"/>
				<path class="st0" d="M41,26.5c0.5,0,1-0.4,1-1v-1.3c0-0.5-0.4-1-1-1s-1,0.4-1,1v1.3C40,26,40.4,26.5,41,26.5z"/>
				<path class="st0" d="M44.8,26.5c0.5,0,1-0.4,1-1v-1.3c0-0.5-0.4-1-1-1s-1,0.4-1,1v1.3C43.9,26,44.3,26.5,44.8,26.5z"/>
				<path class="st0" d="M10.2,29c0.5,0,1-0.4,1-1v-1.3c0-0.5-0.4-1-1-1c-0.5,0-1,0.4-1,1v1.3C9.2,28.6,9.6,29,10.2,29z"/>
				<path class="st0" d="M14,29c0.5,0,1-0.4,1-1v-1.3c0-0.5-0.4-1-1-1c-0.5,0-1,0.4-1,1v1.3C13.1,28.6,13.5,29,14,29z"/>
				<path class="st0" d="M17.9,29c0.5,0,1-0.4,1-1v-1.3c0-0.5-0.4-1-1-1c-0.5,0-1,0.4-1,1v1.3C16.9,28.6,17.3,29,17.9,29z"/>
				<path class="st0" d="M10.2,35.5c0.5,0,1-0.4,1-1v-1.3c0-0.5-0.4-1-1-1c-0.5,0-1,0.4-1,1v1.3C9.2,35,9.6,35.5,10.2,35.5z"/>
				<path class="st0" d="M14,35.5c0.5,0,1-0.4,1-1v-1.3c0-0.5-0.4-1-1-1c-0.5,0-1,0.4-1,1v1.3C13.1,35,13.5,35.5,14,35.5z"/>
				<path class="st0" d="M17.9,35.5c0.5,0,1-0.4,1-1v-1.3c0-0.5-0.4-1-1-1c-0.5,0-1,0.4-1,1v1.3C16.9,35,17.3,35.5,17.9,35.5z"/>
				<path class="st0" d="M10.2,41.9c0.5,0,1-0.4,1-1v-1.3c0-0.5-0.4-1-1-1c-0.5,0-1,0.4-1,1v1.3C9.2,41.4,9.6,41.9,10.2,41.9z"/>
				<path class="st0" d="M14,41.9c0.5,0,1-0.4,1-1v-1.3c0-0.5-0.4-1-1-1c-0.5,0-1,0.4-1,1v1.3C13.1,41.4,13.5,41.9,14,41.9z"/>
				<path class="st0" d="M17.9,41.9c0.5,0,1-0.4,1-1v-1.3c0-0.5-0.4-1-1-1c-0.5,0-1,0.4-1,1v1.3C16.9,41.4,17.3,41.9,17.9,41.9z"/>
				<path class="st0" d="M10.2,48.3c0.5,0,1-0.4,1-1V46c0-0.5-0.4-1-1-1c-0.5,0-1,0.4-1,1v1.3C9.2,47.9,9.6,48.3,10.2,48.3z"/>
				<path class="st0" d="M14,48.3c0.5,0,1-0.4,1-1V46c0-0.5-0.4-1-1-1c-0.5,0-1,0.4-1,1v1.3C13.1,47.9,13.5,48.3,14,48.3z"/>
				<path class="st0" d="M17.9,48.3c0.5,0,1-0.4,1-1V46c0-0.5-0.4-1-1-1c-0.5,0-1,0.4-1,1v1.3C16.9,47.9,17.3,48.3,17.9,48.3z"/>
				<path class="st0" d="M44.8,32.9c0.5,0,1-0.4,1-1v-1.3c0-0.5-0.4-1-1-1s-1,0.4-1,1v1.3C43.9,32.5,44.3,32.9,44.8,32.9z"/>
				<path class="st0" d="M44.8,39.3c0.5,0,1-0.4,1-1v-1.3c0-0.5-0.4-1-1-1s-1,0.4-1,1v1.3C43.9,38.9,44.3,39.3,44.8,39.3z"/>
				<path class="st0" d="M44.8,45.7c0.5,0,1-0.4,1-1v-1.3c0-0.5-0.4-1-1-1s-1,0.4-1,1v1.3C43.9,45.3,44.3,45.7,44.8,45.7z"/>
				<path class="st0" d="M44.8,52.1c0.5,0,1-0.4,1-1v-1.3c0-0.5-0.4-1-1-1s-1,0.4-1,1v1.3C43.9,51.7,44.3,52.1,44.8,52.1z"/>
				<path class="st0" d="M27.8,16.5c0-0.5-0.4-1-1-1h-7.7c-0.5,0-1,0.4-1,1c0,0.5,0.4,1,1,1h7.7C27.4,17.5,27.8,17.1,27.8,16.5z"/>
			</g>
		</g>
	</g>
</g>
</svg>
