<?xml version="1.0" encoding="utf-8"?>
<!-- Generator: Adobe Illustrator 27.7.0, SVG Export Plug-In . SVG Version: 6.00 Build 0)  -->
<svg version="1.1" id="_001-clock" xmlns="http://www.w3.org/2000/svg" xmlns:xlink="http://www.w3.org/1999/xlink" x="0px" y="0px"
	 width="86px" height="96px" viewBox="0 0 86 96" style="enable-background:new 0 0 86 96;" xml:space="preserve">
<style type="text/css">
	.st0{fill:#C9A485;}
</style>
<g id="Group_24390">
	<g id="Group_24389">
		<path id="Path_81680" class="st0" d="M43,19.4c1,0,1.8-0.8,1.8-1.8v-0.9c0-1-0.8-1.8-1.8-1.8c-1,0-1.8,0.8-1.8,1.8v0.9
			C41.2,18.5,42,19.4,43,19.4z"/>
		<path id="Path_81681" class="st0" d="M43,76.6c-1,0-1.8,0.8-1.8,1.8v0.9c0,1,0.8,1.8,1.8,1.8c1,0,1.8-0.8,1.8-1.8v-0.9
			C44.8,77.5,44,76.6,43,76.6z"/>
		<path id="Path_81682" class="st0" d="M12.5,46.2h-0.9c-1,0-1.8,0.8-1.8,1.8c0,1,0.8,1.8,1.8,1.8h0.9c1,0,1.8-0.8,1.8-1.8
			C14.4,47,13.5,46.2,12.5,46.2z"/>
		<path id="Path_81683" class="st0" d="M74.4,46.2h-0.9c-1,0-1.8,0.8-1.8,1.8c0,1,0.8,1.8,1.8,1.8h0.9c1,0,1.8-0.8,1.8-1.8
			C76.3,47,75.4,46.2,74.4,46.2z"/>
		<path id="Path_81684" class="st0" d="M22.1,24.5c-0.7-0.7-1.9-0.6-2.6,0.1c-0.6,0.7-0.6,1.8,0,2.5l0.6,0.6
			c0.7,0.7,1.8,0.7,2.5,0.1c0,0,0,0,0.1-0.1c0.7-0.7,0.7-1.8,0.1-2.5c0,0,0,0-0.1-0.1L22.1,24.5z"/>
		<path id="Path_81685" class="st0" d="M20.2,68.2l-0.6,0.6c-0.7,0.7-0.7,1.8-0.1,2.5c0,0,0,0,0.1,0.1c0.7,0.7,1.8,0.7,2.5,0.1
			c0,0,0,0,0.1-0.1l0.6-0.6c0.7-0.7,0.7-1.9,0-2.6C22.1,67.5,20.9,67.5,20.2,68.2z"/>
		<path id="Path_81686" class="st0" d="M63.9,24.5l-0.6,0.6c-0.7,0.7-0.7,1.8-0.1,2.5c0,0,0,0,0.1,0.1c0.7,0.7,1.8,0.7,2.5,0.1
			c0,0,0,0,0.1-0.1l0.6-0.6c0.7-0.7,0.7-1.9,0-2.6C65.8,23.8,64.6,23.8,63.9,24.5z"/>
		<path id="Path_81687" class="st0" d="M44.8,47.3V30.4c0-1-0.8-1.8-1.8-1.8c-1,0-1.8,0.8-1.8,1.8V48c0,0.5,0.2,1,0.6,1.3l20.2,20.2
			c0.7,0.7,1.8,0.7,2.5,0.1c0,0,0,0,0.1-0.1c0.7-0.7,0.7-1.8,0.1-2.5c0,0,0,0-0.1-0.1L44.8,47.3z"/>
		<path id="Path_81688" class="st0" d="M43,5.5C19.5,5.5,0.5,24.5,0.5,48s19,42.5,42.5,42.5s42.5-19,42.5-42.5
			C85.5,24.5,66.5,5.5,43,5.5z M43,86.8C21.6,86.8,4.2,69.4,4.2,48C4.2,26.6,21.6,9.2,43,9.2S81.8,26.6,81.8,48c0,0,0,0,0,0
			C81.8,69.4,64.4,86.8,43,86.8C43,86.8,43,86.8,43,86.8z"/>
	</g>
</g>
</svg>
