<?xml version="1.0" encoding="utf-8"?>
<!-- Generator: Adobe Illustrator 27.8.1, SVG Export Plug-In . SVG Version: 6.00 Build 0)  -->
<svg version="1.1" id="Layer_1" xmlns="http://www.w3.org/2000/svg" xmlns:xlink="http://www.w3.org/1999/xlink" x="0px" y="0px"
	 viewBox="0 0 55 60" style="enable-background:new 0 0 55 60;" xml:space="preserve">
<style type="text/css">
	.st0{fill:#C9A484;}
</style>
<g>
	<path class="st0" d="M27.5,17.2l6.3-5.3h8.3V3.4H21.5V12h6V17.2z M23.2,10.2V5.1h17.2v5.2h-7.2l-4,3.3v-3.3H23.2z"/>
	<path class="st0" d="M24.9,6.8h1.7v1.7h-1.7V6.8z"/>
	<path class="st0" d="M28.4,6.8h6.9v1.7h-6.9V6.8z"/>
	<path class="st0" d="M37,6.8h1.7v1.7H37V6.8z"/>
	<path class="st0" d="M44.6,54.9l-0.7-7C46.8,47.5,49,45,49,42V30.9h-3.4v-1.2c0-1.2-0.6-2.2-1.7-2.8c1-0.9,1.7-2.3,1.7-3.8v-1.7
		c0-2.8-2.3-5.2-5.2-5.2s-5.2,2.3-5.2,5.2v1.7c0,2.2,1.4,4.1,3.4,4.8L34,32.6h-4.8c-0.1-1.4-1.1-2.7-2.5-3.1l-3.5-1V27
		c1.1-0.9,1.7-2.3,1.7-3.8v-1.7c0-2.8-2.3-5.2-5.2-5.2s-5.2,2.3-5.2,5.2v1.7c0,1.5,0.7,2.9,1.7,3.8v1.5l-3.5,1
		c-1.5,0.4-2.5,1.8-2.5,3.3V36H6.9v5.2h1.7v13.7H0.9v1.7h53.3v-1.7H44.6z M37,41.2v-3.9l6.1-6.1c0.4-0.4,0.7-1,0.8-1.6
		c0,0.1,0,0.1,0,0.2v10.6c0,1.4-1.2,2.6-2.6,2.6h-6.9v-1.7H37z M34.4,48h4.4l0.7,6.9h-5.1V48z M40.5,48h1.7l0.7,6.9h-1.7L40.5,48z
		 M45.5,40.3v-7.7h1.7V42c0,2.4-1.9,4.3-4.3,4.3h-8.6v-1.7h6.9C43.6,44.6,45.5,42.7,45.5,40.3z M37,23.1v-1.7c0-1.9,1.5-3.4,3.4-3.4
		s3.4,1.5,3.4,3.4v1.7c0,1.9-1.5,3.4-3.4,3.4S37,25,37,23.1z M34.7,34.3l5.7-5.7c0.2-0.2,0.4-0.3,0.7-0.3c0.5,0,1,0.4,1,1
		c0,0.3-0.1,0.5-0.3,0.7L35.7,36h-9.1c-0.5,0-0.9-0.4-0.9-0.9s0.4-0.9,0.9-0.9H34.7z M16.3,21.4c0-1.9,1.5-3.4,3.4-3.4
		s3.4,1.5,3.4,3.4v1.7c0,1.9-1.5,3.4-3.4,3.4s-3.4-1.5-3.4-3.4V21.4z M19.8,28.3c0.6,0,1.2-0.1,1.7-0.3v0.9
		c-0.2,0.3-0.8,1.1-1.7,1.1s-1.5-0.8-1.7-1.1V28C18.6,28.2,19.2,28.3,19.8,28.3z M12,32.8c0-0.8,0.5-1.4,1.2-1.7l3.5-1
		c0.5,0.6,1.5,1.6,2.9,1.6s2.4-0.9,2.9-1.6l3.5,1c0.7,0.2,1.1,0.8,1.2,1.4h-0.8c-1.4,0-2.6,1.2-2.6,2.6c0,0.3,0.1,0.6,0.2,0.9H12
		V32.8z M8.6,37.7h26.6v1.7H8.6V37.7z M10.3,44.6h2.6v-1.7h-2.6v-1.7h22.3v1.7h-18v1.7h18v10.3h-2l-1.7-3.4H14.1l-1.7,3.4h-2V44.6z
		 M28.7,54.9H14.3l0.9-1.7h12.7L28.7,54.9z"/>
</g>
</svg>
