<?xml version="1.0" encoding="utf-8"?>
<!-- Generator: Adobe Illustrator 27.8.1, SVG Export Plug-In . SVG Version: 6.00 Build 0)  -->
<svg version="1.1" id="Layer_3" xmlns="http://www.w3.org/2000/svg" xmlns:xlink="http://www.w3.org/1999/xlink" x="0px" y="0px"
	 viewBox="0 0 55 60" style="enable-background:new 0 0 55 60;" xml:space="preserve">
<style type="text/css">
	.st0{fill:#C9A484;}
</style>
<g>
	<path class="st0" d="M28.2,40.7l-1.6,0.2c0.1,0.5,0.1,1,0.1,1.5h1.7C28.3,41.9,28.3,41.3,28.2,40.7z"/>
	<path class="st0" d="M50.7,9.3h-0.8V6.8c0-1.4-1.1-2.5-2.5-2.5h-1.7c-1.4,0-2.5,1.1-2.5,2.5v2.5H20V6.8c0-1.4-1.1-2.5-2.5-2.5h-1.7
		c-1.4,0-2.5,1.1-2.5,2.5v2.5h-0.8c-1.4,0-2.5,1.1-2.5,2.5v18.4c-4.9,2-8.3,6.7-8.3,12.3c0,7.3,6,13.3,13.3,13.3
		c5.5,0,10.3-3.4,12.3-8.3h23.4c1.4,0,2.5-1.1,2.5-2.5V11.7C53.2,10.4,52.1,9.3,50.7,9.3z M44.9,6.8c0-0.5,0.4-0.8,0.8-0.8h1.7
		c0.5,0,0.8,0.4,0.8,0.8v6.6c0,0.5-0.4,0.8-0.8,0.8h-1.7c-0.5,0-0.8-0.4-0.8-0.8V6.8z M15.1,6.8c0-0.5,0.4-0.8,0.8-0.8h1.7
		c0.5,0,0.8,0.4,0.8,0.8v6.6c0,0.5-0.4,0.8-0.8,0.8h-1.7c-0.5,0-0.8-0.4-0.8-0.8V6.8z M26.6,44c-0.8,5.7-5.7,10.1-11.5,10.1
		c-6.4,0-11.6-5.2-11.6-11.6s5.2-11.6,11.6-11.6c5.2,0,9.8,3.5,11.2,8.5l1.6-0.4c-1.6-5.7-6.8-9.7-12.8-9.7c-1.1,0-2.3,0.2-3.3,0.4
		V11.7c0-0.5,0.4-0.8,0.8-0.8h0.8v2.5c0,1.4,1.1,2.5,2.5,2.5h1.7c1.4,0,2.5-1.1,2.5-2.5v-2.5h23.2v2.5c0,1.4,1.1,2.5,2.5,2.5h1.7
		c1.4,0,2.5-1.1,2.5-2.5v-2.5h0.8c0.5,0,0.8,0.4,0.8,0.8v7.5H16.7v1.7h34.9v16.5l-2.6-3.7c-0.1-0.2-0.3-0.3-0.6-0.3
		c-0.2,0-0.5,0-0.6,0.2l-2.8,2.3v-3.3h5v-1.7h-5.8c-0.5,0-0.8,0.4-0.8,0.8v5.6L33,45.8h-5.1c0.1-0.5,0.2-1,0.3-1.6L26.6,44z
		 M48.1,35.4l3,4.3l-13.8,6.2h-1.7L48.1,35.4z M50.7,45.8h-9.4l10.2-4.5v3.7C51.6,45.4,51.2,45.8,50.7,45.8z"/>
	<path class="st0" d="M13.4,19.2h1.7v1.7h-1.7V19.2z"/>
	<path class="st0" d="M20,28.3v-5c0-0.5-0.4-0.8-0.8-0.8h-5c-0.5,0-0.8,0.4-0.8,0.8v5c0,0.5,0.4,0.8,0.8,0.8h0.8h4.1
		C19.7,29.2,20,28.8,20,28.3z M18.4,27.5h-3.3v-3.3h3.3V27.5z"/>
	<path class="st0" d="M29.2,29.2c0.5,0,0.8-0.4,0.8-0.8v-5c0-0.5-0.4-0.8-0.8-0.8h-5c-0.5,0-0.8,0.4-0.8,0.8v5
		c0,0.5,0.4,0.8,0.8,0.8H29.2z M25,24.2h3.3v3.3H25V24.2z"/>
	<path class="st0" d="M34.1,29.2h5c0.5,0,0.8-0.4,0.8-0.8v-5c0-0.5-0.4-0.8-0.8-0.8h-5c-0.5,0-0.8,0.4-0.8,0.8v5
		C33.3,28.8,33.7,29.2,34.1,29.2z M35,24.2h3.3v3.3H35V24.2z"/>
	<path class="st0" d="M44.1,29.2h5c0.5,0,0.8-0.4,0.8-0.8v-5c0-0.5-0.4-0.8-0.8-0.8h-5c-0.5,0-0.8,0.4-0.8,0.8v5
		C43.3,28.8,43.6,29.2,44.1,29.2z M44.9,24.2h3.3v3.3h-3.3V24.2z"/>
	<path class="st0" d="M28.3,37.5H30v-5.8c0-0.5-0.4-0.8-0.8-0.8h-5v1.7h4.1V37.5z"/>
	<path class="st0" d="M34.1,37.5h5c0.5,0,0.8-0.4,0.8-0.8v-5c0-0.5-0.4-0.8-0.8-0.8h-5c-0.5,0-0.8,0.4-0.8,0.8v5
		C33.3,37.1,33.7,37.5,34.1,37.5z M35,32.5h3.3v3.3H35V32.5z"/>
	<path class="st0" d="M15.9,34.2v-1.7h-1.7v1.7c-1.9,0.4-3.3,2.1-3.3,4.1c0,2.3,1.9,4.1,4.1,4.1c1.4,0,2.5,1.1,2.5,2.5
		s-1.1,2.5-2.5,2.5s-2.5-1.1-2.5-2.5v-0.8h-1.7v0.8c0,2,1.4,3.7,3.3,4.1v1.7h1.7V49c1.9-0.4,3.3-2.1,3.3-4.1c0-2.3-1.9-4.1-4.1-4.1
		c-1.4,0-2.5-1.1-2.5-2.5c0-1.4,1.1-2.5,2.5-2.5s2.5,1.1,2.5,2.5v0.8h1.7v-0.8C19.2,36.3,17.8,34.6,15.9,34.2L15.9,34.2z"/>
</g>
</svg>
