<?xml version="1.0" encoding="utf-8"?>
<!-- Generator: Adobe Illustrator 27.8.1, SVG Export Plug-In . SVG Version: 6.00 Build 0)  -->
<svg version="1.1" id="Capa_1" xmlns="http://www.w3.org/2000/svg" xmlns:xlink="http://www.w3.org/1999/xlink" x="0px" y="0px"
	 viewBox="0 0 55 60" style="enable-background:new 0 0 55 60;" xml:space="preserve">
<style type="text/css">
	.st0{fill:#C9A484;}
</style>
<g>
	<g>
		<g>
			<path class="st0" d="M49.9,7.3H5.1C3,7.3,1.3,9,1.3,11.1v35.6c0,2.1,1.7,3.8,3.8,3.8h17.6c0.6,0,1-0.5,1-1c0-0.6-0.5-1-1-1H5.1
				c-1,0-1.8-0.8-1.8-1.8V23.3h48.3v23.4c0,1-0.8,1.8-1.8,1.8H31.7c-0.6,0-1,0.5-1,1c0,0.6,0.5,1,1,1h18.2c2.1,0,3.8-1.7,3.8-3.8
				V11.1C53.7,9,52,7.3,49.9,7.3L49.9,7.3z M3.3,21.2V11.1c0-1,0.8-1.8,1.8-1.8h44.8c1,0,1.8,0.8,1.8,1.8v10.1L3.3,21.2L3.3,21.2z"
				/>
			<path class="st0" d="M23,26.8H9.4c-1.4,0-2.5,1.1-2.5,2.5v12.9c0,1.4,1.2,2.5,2.5,2.5H23c1.4,0,2.5-1.2,2.5-2.5V29.4
				C25.5,28,24.4,26.8,23,26.8z M23.5,29.4v10c-0.5-0.4-1-0.8-1.7-1l-2.3-0.8c-0.1,0-0.1-0.1-0.1-0.1l-0.1-0.7
				c1-0.9,1.6-2.1,1.6-3.5v-1.5c0-1-0.3-1.9-0.8-2.7H23C23.3,28.9,23.5,29.1,23.5,29.4L23.5,29.4z M23,42.7C23,42.7,23,42.7,23,42.7
				H9.4c0,0,0,0,0,0c0,0,0,0-0.1,0l0-0.1c0.2-1.1,0.9-2,1.9-2.3l2.3-0.8c0.8-0.3,1.3-1,1.4-1.8c0.8,0.2,1.6,0.2,2.4,0
				c0.1,0.8,0.7,1.5,1.4,1.8l2.3,0.8c1,0.4,1.8,1.3,1.9,2.3L23,42.7C23,42.7,23,42.7,23,42.7L23,42.7z M18.9,31.6v1.5
				c0,1-0.5,1.8-1.3,2.3c-0.8,0.5-2,0.5-2.8,0c-0.8-0.5-1.3-1.3-1.3-2.3v-1.5c0-1.5,1.2-2.7,2.7-2.7S18.9,30.1,18.9,31.6z M9.4,28.9
				h2.9c-0.5,0.8-0.8,1.7-0.8,2.7v1.5c0,1.4,0.6,2.7,1.6,3.5L13,37.4c0,0.1-0.1,0.1-0.1,0.1l-2.3,0.8c-0.6,0.2-1.2,0.6-1.7,1v-10
				C8.9,29.1,9.1,28.9,9.4,28.9L9.4,28.9z"/>
			<path class="st0" d="M46.8,26.8H29.9c-0.6,0-1,0.5-1,1s0.5,1,1,1h16.9c0.6,0,1-0.5,1-1S47.4,26.8,46.8,26.8z"/>
			<path class="st0" d="M46.8,32.3h-9.4c-0.6,0-1,0.5-1,1s0.5,1,1,1h9.4c0.6,0,1-0.5,1-1S47.4,32.3,46.8,32.3z"/>
			<path class="st0" d="M34,33.4c0-0.6-0.5-1-1-1h-3c-0.6,0-1,0.5-1,1s0.5,1,1,1h3C33.5,34.4,34,33.9,34,33.4z"/>
			<path class="st0" d="M46.8,42.7h-8.3c-0.6,0-1,0.5-1,1c0,0.6,0.5,1,1,1h8.3c0.6,0,1-0.5,1-1C47.9,43.2,47.4,42.7,46.8,42.7z"/>
			<path class="st0" d="M28.1,49.1c-0.2-0.5-0.8-0.8-1.3-0.6c-0.5,0.2-0.8,0.8-0.6,1.3c0.2,0.5,0.8,0.8,1.3,0.6
				C28.1,50.2,28.4,49.6,28.1,49.1z"/>
			<path class="st0" d="M38.7,12C38.7,12,38.6,12,38.7,12c-0.2-0.5-0.6-0.8-1.1-0.8c0,0,0,0,0,0c-0.5,0-0.9,0.3-1.1,0.7c0,0,0,0,0,0
				l-2.3,6.2c-0.2,0.5,0.1,1.1,0.6,1.3c0.1,0,0.2,0.1,0.4,0.1c0.4,0,0.8-0.3,1-0.7l0.3-0.9h2.4l0.3,0.9c0.2,0.5,0.8,0.8,1.3,0.6
				c0.5-0.2,0.8-0.8,0.6-1.3L38.7,12z M37.2,15.9l0.4-1.1l0.4,1.1H37.2z"/>
			<path class="st0" d="M23.5,11.2c-0.6,0-1,0.5-1,1v6.2c0,0.6,0.5,1,1,1s1-0.5,1-1v-6.2C24.5,11.7,24,11.2,23.5,11.2z"/>
			<path class="st0" d="M19.7,11.3c-0.5-0.2-1.1,0.1-1.3,0.6l-1.2,3.7l-1.3-3.7c-0.2-0.5-0.8-0.8-1.3-0.6c-0.5,0.2-0.8,0.8-0.6,1.3
				l2.1,6.2c0.2,0.5,0.6,0.8,1.1,0.8h0c0.5,0,0.9-0.3,1.1-0.8l2-6.1C20.6,12,20.3,11.5,19.7,11.3L19.7,11.3z"/>
		</g>
	</g>
	<path class="st0" d="M30.8,14.5c-0.7-0.3-1.4-0.6-1.7-0.7c0,0-0.1-0.1,0-0.2c0-0.1,0.1-0.2,0.3-0.3c0.8-0.2,1.5,0.3,1.5,0.4
		c0,0,0.8,0.5,1.4-0.2c0.6-0.7-0.1-1.4-0.1-1.4c-0.6-0.5-1.9-1.2-3.4-0.7c-1,0.3-1.6,1-1.8,2c-0.1,0.9,0.3,1.7,1,2.2
		c0,0,0.1,0.1,0.1,0.1c0,0,0.9,0.4,1.9,0.8c0.3,0.1,0.7,0.3,0.7,0.6c0,0.2-0.3,0.5-0.9,0.5c-0.6,0-1.1-0.2-1.4-0.6
		c-0.4-0.4-1-0.5-1.4-0.1c-0.4,0.4-0.5,1-0.1,1.4c0.7,0.8,1.8,1.3,2.9,1.3c1.4,0,2.6-0.9,2.9-2.2C32.9,16.4,32.5,15.1,30.8,14.5
		L30.8,14.5z"/>
</g>
</svg>
