<?xml version="1.0" encoding="utf-8"?>
<!-- Generator: Adobe Illustrator 27.8.1, SVG Export Plug-In . SVG Version: 6.00 Build 0)  -->
<svg version="1.1" id="Layer_1" xmlns="http://www.w3.org/2000/svg" xmlns:xlink="http://www.w3.org/1999/xlink" x="0px" y="0px"
	 viewBox="0 0 55 60" style="enable-background:new 0 0 55 60;" xml:space="preserve">
<style type="text/css">
	.st0{fill-rule:evenodd;clip-rule:evenodd;fill:#C9A484;}
</style>
<path class="st0" d="M26.6,23.2c5.5,0,10-4.5,10-10s-4.5-10-10-10s-10,4.5-10,10S21.1,23.2,26.6,23.2z M26.6,4.9
	c4.6,0,8.3,3.7,8.3,8.3s-3.7,8.3-8.3,8.3s-8.3-3.7-8.3-8.3S22,4.9,26.6,4.9z M22.9,15.9c-0.1-0.4,0.2-0.9,0.6-1
	c0.4-0.1,0.9,0.2,1,0.6c0.1,0.4,0.4,0.8,0.7,1c0.9,0.6,2.3,0.6,3.1-0.1c0.7-0.5,0.4-1.5-0.2-1.9c-0.4-0.3-1-0.4-1.6-0.5
	c-0.7-0.1-1.4-0.3-2.1-0.7c-1.6-1.1-1.7-3.4-0.2-4.6c0.4-0.4,1-0.6,1.5-0.7V7.4c0-0.5,0.4-0.8,0.8-0.8c0.5,0,0.8,0.4,0.8,0.8V8
	c0.1,0,0.1,0,0.2,0c1,0.3,2,0.9,2.5,2.1c0.2,0.4,0,0.9-0.4,1.1c-0.4,0.2-0.9,0-1.1-0.4C28,9.6,26.3,9.2,25.3,10
	c-0.6,0.5-0.6,1.4,0,1.9c0.4,0.3,0.9,0.4,1.4,0.5c0.7,0.1,1.5,0.3,2.2,0.7c1.7,1,2,3.4,0.4,4.7c-0.5,0.4-1.2,0.6-1.9,0.8V19
	c0,0.5-0.4,0.8-0.8,0.8s-0.8-0.4-0.8-0.8v-0.5c-0.5-0.1-1.1-0.3-1.5-0.6C23.6,17.4,23.1,16.8,22.9,15.9L22.9,15.9z M11.9,24.5
	c0,0.6-0.5,1-1.1,1c-0.6,0-1-0.5-1-1.1c0-0.6,0.5-1,1.1-1C11.5,23.5,11.9,24,11.9,24.5z M54.1,38.5l-6.2-16c-0.5-1.2-1.8-1.8-3-1.3
	l-3.1,1.2c-1.2,0.5-1.8,1.8-1.3,3l0.5,1.2l-1.7,0.9c-0.9,0.5-1.9,0.1-3.5-0.5c-2.1-0.9-4.9-2-8.6,0.3c-2.3-1.5-4.7-1-6.6-0.6
	c-1.5,0.3-2.8,0.6-3.9,0c0,0,0,0-0.1,0l-2-0.9l0.5-1.2c0.5-1.2,0-2.6-1.2-3.1l-3-1.3c-0.6-0.3-1.2-0.3-1.8,0s-1,0.7-1.3,1.2L1,37.1
	c-0.3,0.6-0.3,1.2,0,1.8s0.7,1,1.2,1.3l3,1.3c0.3,0.1,0.6,0.2,0.9,0.2c0.3,0,0.6-0.1,0.8-0.2c0.6-0.2,1-0.7,1.3-1.2l0.3-0.8
	c1,0.4,1.6,0.7,1.8,0.8c0.4,0.2,0.5,0.7,0.7,1.5c0.1,0.5,0.2,1,0.4,1.4l-0.8,1.6c-0.9,1.6-0.2,3.6,1.3,4.4c0.5,0.3,1.1,0.4,1.6,0.4
	c-0.1,0.5,0,1,0.1,1.5c0.3,0.8,0.8,1.5,1.6,1.9c1,0.5,2.2,0.5,3.1,0c0.3,0.6,0.8,1.2,1.4,1.5c0.9,0.5,2,0.5,2.9,0.1
	c0.3,0.7,0.8,1.4,1.5,1.7c0.5,0.3,1,0.4,1.5,0.4c0.3,0,0.6,0,1-0.1c0.7-0.2,1.3-0.7,1.7-1.3l0.9,0.5c0.5,0.3,1,0.4,1.5,0.4
	c0.3,0,0.6,0,0.9-0.1c0.8-0.2,1.5-0.8,2-1.5c0.3-0.5,0.4-1.1,0.4-1.7c0.5,0.1,1.1,0.1,1.6,0c0.8-0.2,1.5-0.8,1.9-1.5
	c0.3-0.6,0.4-1.2,0.4-1.8c0.4,0.1,0.9,0,1.3-0.1c0.8-0.2,1.5-0.8,1.9-1.5c0.4-0.8,0.5-1.7,0.2-2.6c0,0,0.1,0,0.1,0
	c0.8-0.2,1.5-0.8,1.9-1.5c0.4-0.7,0.5-1.4,0.3-2.1l2.6-1.1l0.3,0.7c0.4,0.9,1.2,1.5,2.2,1.5c0.3,0,0.6-0.1,0.8-0.2l3.1-1.2
	C54,41.1,54.6,39.7,54.1,38.5L54.1,38.5z M6.7,39.6c-0.1,0.2-0.2,0.3-0.4,0.4C6.2,40,6,40,5.8,39.9l-3-1.3c-0.2-0.1-0.3-0.2-0.4-0.4
	c-0.1-0.2-0.1-0.3,0-0.5l6.9-15.7c0.1-0.2,0.4-0.4,0.6-0.4c0.1,0,0.2,0,0.3,0.1l3,1.3c0.3,0.1,0.5,0.5,0.3,0.9L6.7,39.6z M12.7,47.7
	c-0.8-0.4-1.1-1.4-0.7-2.2l1.5-2.8c0.4-0.8,1.4-1.1,2.2-0.7c0.7,0.4,1,1.3,0.7,2l-2,3.4C14,48,13.3,48,12.7,47.7L12.7,47.7z
	 M16.1,51.5c-0.4-0.2-0.6-0.5-0.8-0.9c-0.1-0.4-0.1-0.8,0.1-1.2l2.4-4.3c0.5-0.4,1.2-0.5,1.8-0.2c0.6,0.3,0.9,1,0.8,1.7l-2.2,4.2
	C17.8,51.7,16.8,52,16.1,51.5L16.1,51.5z M20.6,53c-0.6-0.3-0.9-0.9-0.8-1.5l2.1-4.1c0.5-0.5,1.3-0.6,1.9-0.3c0.6,0.3,0.9,1,0.8,1.7
	l-1.9,3.7C22.2,53.2,21.3,53.4,20.6,53L20.6,53z M26.2,55c-0.4,0.1-0.8,0.1-1.2-0.1c-0.6-0.3-0.9-0.9-0.8-1.6l1.9-3.7
	c0.5-0.5,1.3-0.6,1.9-0.3c0.4,0.2,0.6,0.5,0.8,0.9c0.1,0.4,0.1,0.8-0.1,1.2l-1.4,2.7C27,54.6,26.6,54.9,26.2,55L26.2,55z M32.2,53.8
	c-0.2,0.4-0.5,0.6-0.9,0.7c-0.4,0.1-0.8,0.1-1.1-0.1l-0.9-0.5l0.8-1.6c0.2-0.4,0.3-0.8,0.4-1.3l1.2,0.7
	C32.3,52.1,32.6,53.1,32.2,53.8L32.2,53.8z M42,43c-0.2,0.4-0.5,0.6-0.9,0.7c-0.4,0.1-0.8,0.1-1.1-0.1c0,0,0,0,0,0
	c-2.1-1.2-3.8-2.1-5.6-3.2c-0.4-0.2-0.9-0.1-1.1,0.3c-0.2,0.4-0.1,0.9,0.3,1.1c1.8,1,3.5,2,5.6,3.2c0.7,0.4,1,1.3,0.6,2.1
	c-0.2,0.4-0.5,0.6-0.9,0.7C38.4,48,38,48,37.7,47.8l-7.4-4.2c-0.4-0.2-0.9-0.1-1.1,0.3c-0.2,0.4-0.1,0.9,0.3,1.1l6,3.4
	c0.7,0.4,1,1.3,0.6,2.1c-0.2,0.4-0.5,0.6-0.9,0.7c-0.4,0.1-0.8,0.1-1.2-0.1l-4.3-2.4c-0.3-0.4-0.6-0.6-1-0.9
	c-0.8-0.4-1.7-0.5-2.6-0.2c-0.2-0.8-0.8-1.6-1.6-2c-0.8-0.4-1.7-0.5-2.6-0.2c-0.2-0.8-0.8-1.6-1.6-2c-0.7-0.4-1.4-0.5-2.2-0.3
	c-0.1-1-0.7-2-1.7-2.5c-1.3-0.7-2.9-0.4-3.9,0.6c-0.2-0.9-0.5-2.1-1.7-2.5c-0.2-0.1-0.8-0.3-1.7-0.8L14,27.4l1.9,0.9
	c1.6,0.9,3.3,0.5,5,0.1c1.7-0.4,3.3-0.7,4.8,0c-0.4,0.4-0.9,0.8-1.3,1.2c-1.5,1.6-3.5,3-5.8,4.4c-0.3,0.2-0.5,0.4-0.5,0.8
	c-0.1,0.3,0,0.6,0.2,0.9c3.1,4.1,6.8,2.6,9.8,1.4c2-0.8,3.8-1.5,5.2-0.7l8.2,4.7C42.1,41.4,42.4,42.3,42,43L42,43z M43.1,40.2
	c-0.2-0.3-0.5-0.5-0.9-0.7l-8.2-4.7c-2.1-1.2-4.4-0.3-6.6,0.6c-2.8,1.1-5.2,2.1-7.4-0.4c2.2-1.3,4.1-2.8,5.6-4.3
	c0.7-0.7,1.4-1.3,2-1.7c3.2-2.2,5.4-1.3,7.5-0.4c1.6,0.6,3.2,1.3,4.9,0.4l1.6-0.8l4.2,10.9L43.1,40.2z M52.2,40l-3.1,1.2
	c-0.3,0.1-0.7,0-0.9-0.4l-6.2-16c-0.1-0.3,0-0.7,0.4-0.9l3.1-1.2c0.1,0,0.2,0,0.2,0c0.3,0,0.5,0.2,0.6,0.4l6.2,16
	C52.7,39.5,52.5,39.8,52.2,40L52.2,40z M45.8,25.5c0,0.6-0.5,1-1,1c-0.6,0-1-0.5-1-1s0.5-1,1-1C45.3,24.5,45.8,24.9,45.8,25.5z"/>
</svg>
