<?xml version="1.0" encoding="utf-8"?>
<!-- Generator: Adobe Illustrator 27.8.1, SVG Export Plug-In . SVG Version: 6.00 Build 0)  -->
<svg version="1.1" id="Layer_1" xmlns="http://www.w3.org/2000/svg" xmlns:xlink="http://www.w3.org/1999/xlink" x="0px" y="0px"
	 viewBox="0 0 55 60" style="enable-background:new 0 0 55 60;" xml:space="preserve">
<style type="text/css">
	.st0{fill:#C9A484;}
</style>
<path class="st0" d="M22.4,15.3h9.9c0.4,0,0.7-0.3,0.7-0.7v-2.5c0-0.4-0.3-0.7-0.7-0.7h-9.9c-0.4,0-0.7,0.3-0.7,0.7v2.5
	C21.8,15,22.1,15.3,22.4,15.3z M23.1,12.8h8.6V14h-8.6V12.8z M22.4,29.8h9.8c0.4,0,0.7-0.3,0.7-0.7v-8.5c0-0.4-0.3-0.7-0.7-0.7h-9.8
	c-0.4,0-0.7,0.3-0.7,0.7v8.5C21.8,29.5,22.1,29.8,22.4,29.8L22.4,29.8z M23.1,25.6h3.6v2.9h-3.6V25.6z M28,28.5v-2.9h3.6v2.9H28z
	 M31.6,24.3H28v-2.9h3.6V24.3z M26.7,21.4v2.9h-3.6v-2.9H26.7z M11.4,34.6v10.1c0,0.4-0.3,0.7-0.7,0.7s-0.7-0.3-0.7-0.7V34.6
	c0-0.4,0.3-0.7,0.7-0.7S11.4,34.3,11.4,34.6z M7.6,34.6v10.1c0,0.4-0.3,0.7-0.7,0.7c-0.4,0-0.7-0.3-0.7-0.7V34.6
	C6.3,34.3,6.6,34,7,34C7.3,34,7.6,34.3,7.6,34.6z M15.2,34.6v10.1c0,0.4-0.3,0.7-0.7,0.7c-0.4,0-0.7-0.3-0.7-0.7V34.6
	c0-0.4,0.3-0.7,0.7-0.7C14.9,34,15.2,34.3,15.2,34.6z M15.2,29H6.4c-0.4,0-0.7,0.3-0.7,0.7v2.1c0,0.4,0.3,0.7,0.7,0.7h8.8
	c0.4,0,0.7-0.3,0.7-0.7v-2.1C15.8,29.3,15.5,29,15.2,29L15.2,29z M14.5,31.1H7v-0.8h7.5V31.1z M13.9,20H7.7C7.3,20,7,20.3,7,20.7
	v2.1c0,0.4,0.3,0.7,0.7,0.7h6.2c0.4,0,0.7-0.3,0.7-0.7v-2.1C14.5,20.3,14.2,20,13.9,20z M13.2,22.1H8.3v-0.8h4.9V22.1z M53.7,43.2
	l-1.9-0.4l-0.7-1.7l1.1-1.6c0.2-0.3,0.1-0.6-0.1-0.8L49.4,36c-0.2-0.2-0.6-0.3-0.8-0.1L47,37l-1.7-0.7l-0.4-1.9
	c-0.1-0.3-0.3-0.5-0.6-0.5h-3.7c-0.3,0-0.6,0.2-0.6,0.5l-0.4,1.9L37.7,37l-1-0.6V8.6c0-0.4-0.3-0.7-0.7-0.7h-1.6V5.9
	c0-0.4-0.3-0.7-0.7-0.7h-4.6V3.1c0-0.4-0.3-0.7-0.7-0.7h-2.5c-0.4,0-0.7,0.3-0.7,0.7v2.1h-4.6c-0.4,0-0.7,0.3-0.7,0.7V8h-1.6
	C18.2,8,18,8.3,18,8.6v16.1h-0.6v-7c0-0.3-0.2-0.5-0.4-0.6L5,12.7c-0.2-0.1-0.4,0-0.6,0.1c-0.2,0.1-0.3,0.3-0.3,0.5v11.4H2.9
	c-0.4,0-0.7,0.3-0.7,0.7v21.6H1.4c-0.4,0-0.7,0.3-0.7,0.7v2.3c0,0.4,0.3,0.7,0.7,0.7h32.1l-1,1.4c-0.2,0.3-0.1,0.6,0.1,0.8l2.6,2.6
	c0.2,0.2,0.6,0.3,0.8,0.1l1.6-1.1l1.7,0.7l0.4,1.9c0.1,0.3,0.3,0.5,0.6,0.5h3.7c0.3,0,0.6-0.2,0.6-0.5l0.4-1.9l1.7-0.7l1.6,1.1
	c0.3,0.2,0.6,0.1,0.8-0.1l2.6-2.6c0.2-0.2,0.3-0.6,0.1-0.8l-1.1-1.6l0.7-1.7l1.9-0.4c0.3-0.1,0.5-0.3,0.5-0.6v-3.7
	C54.2,43.5,54,43.3,53.7,43.2L53.7,43.2z M26.8,3.7H28v1.5h-1.2L26.8,3.7z M21.5,6.5h11.7V8H21.5V6.5z M35.5,9.3v26.6
	c-0.1,0-0.1,0.1-0.2,0.1l-2.6,2.6c-0.2,0.2-0.3,0.6-0.1,0.8l1.1,1.6l-0.7,1.7l-1.1,0.2v-7.1h0.4c0.4,0,0.7-0.3,0.7-0.7
	s-0.3-0.7-0.7-0.7h-9.8c-0.4,0-0.7,0.3-0.7,0.7s0.3,0.7,0.7,0.7h0.4v11h-3.7V9.3L35.5,9.3L35.5,9.3z M30.5,35.9v11h-6.2v-11H30.5z
	 M5.5,14.3l10.6,3.9v6.6H5.5L5.5,14.3z M3.6,26H18v20.9H3.6V26z M2.1,48.2h29l1.8,0.4l0.2,0.6H2.1L2.1,48.2L2.1,48.2z M52.9,47
	l-1.7,0.3c-0.2,0-0.4,0.2-0.5,0.4l-1,2.4c-0.1,0.2-0.1,0.4,0.1,0.6l1,1.5l-1.9,1.9l-1.5-1C47.3,53,47,53,46.8,53.1l-2.4,1
	c-0.2,0.1-0.4,0.3-0.4,0.5l-0.3,1.7H41l-0.3-1.7c0-0.2-0.2-0.4-0.4-0.5l-2.4-1c-0.2-0.1-0.4-0.1-0.6,0.1l-1.5,1L34,52.3l1-1.5
	c0.1-0.2,0.1-0.4,0.1-0.6l-1-2.4c-0.1-0.2-0.3-0.4-0.5-0.4L31.8,47v-2.7l1.7-0.3c0.2,0,0.4-0.2,0.5-0.4l1-2.4
	c0.1-0.2,0.1-0.4-0.1-0.6l-1-1.5l1.9-1.9l1.5,1c0.2,0.1,0.4,0.1,0.6,0.1l2.4-1c0.2-0.1,0.4-0.3,0.4-0.5l0.3-1.7h2.7l0.3,1.7
	c0,0.2,0.2,0.4,0.4,0.5l2.4,1c0.2,0.1,0.4,0.1,0.6-0.1l1.5-1l1.9,1.9l-1,1.5c-0.1,0.2-0.1,0.4-0.1,0.6l1,2.4
	c0.1,0.2,0.3,0.4,0.5,0.4l1.7,0.3V47z M42.4,39.3c-3.5,0-6.4,2.9-6.4,6.4c0,3.5,2.9,6.4,6.4,6.4c3.5,0,6.4-2.9,6.4-6.4
	C48.8,42.2,45.9,39.3,42.4,39.3z M42.4,50.8c-2.8,0-5.1-2.3-5.1-5.1c0-2.8,2.3-5.1,5.1-5.1c2.8,0,5.1,2.3,5.1,5.1
	C47.5,48.5,45.2,50.8,42.4,50.8z M43.1,45.2C43,45.2,43,45.2,43.1,45.2l0-1.6c0.2,0.1,0.6,0.2,0.7,0.5c0.1,0.4,0.4,0.6,0.8,0.5
	c0.4-0.1,0.6-0.4,0.5-0.8c-0.2-0.7-0.8-1.3-1.7-1.5c-0.1,0-0.2-0.1-0.3-0.1V42c0-0.4-0.3-0.7-0.7-0.7s-0.7,0.3-0.7,0.7v0.4
	c-0.5,0.1-1.1,0.3-1.4,0.7c-0.4,0.4-0.6,0.9-0.5,1.4c0,0.5,0.3,1,0.8,1.3c0.3,0.3,0.8,0.4,1.2,0.5v1.5c-0.4-0.1-0.6-0.3-0.7-0.6
	c-0.1-0.4-0.4-0.6-0.8-0.5c-0.4,0.1-0.6,0.4-0.5,0.8c0.2,0.9,1,1.5,2,1.7v0.4c0,0.4,0.3,0.7,0.7,0.7c0.4,0,0.7-0.3,0.7-0.7v-0.4
	c0.9-0.1,1.7-0.6,1.9-1.4c0.1-0.5,0.1-0.9-0.1-1.3C44.6,45.9,44,45.5,43.1,45.2L43.1,45.2z M41.3,44.7c-0.1-0.1-0.2-0.2-0.2-0.4
	c0-0.1,0-0.3,0.2-0.4c0.1-0.1,0.3-0.2,0.5-0.3v1.2C41.6,44.8,41.4,44.8,41.3,44.7z M43.7,47.4c0,0.2-0.3,0.3-0.7,0.4v-1.2
	c0.5,0.2,0.6,0.4,0.7,0.4C43.7,47.1,43.8,47.2,43.7,47.4L43.7,47.4z"/>
</svg>
