<svg xmlns="http://www.w3.org/2000/svg" width="34.771" height="34.771" viewBox="0 0 34.771 34.771">
  <g id="chisel" transform="translate(0 -0.002)">
    <path id="Path_96677" data-name="Path 96677" d="M1.739,41.92H33.613a1.159,1.159,0,0,0,.964-1.8L32,36.247a1.739,1.739,0,0,0-1.242-.76L17.207,33.922a.576.576,0,0,1-.507-.511l-.391-3.519a1.729,1.729,0,0,0-1.271-1.485L13.2,27.9l4.177-3.58a1.134,1.134,0,0,0,1.159-.285l.825-.825a1.187,1.187,0,0,0,0-1.651l-2.481-2.482a1.164,1.164,0,0,0-1.644,0l-.833.828a1.164,1.164,0,0,0-.285,1.165L9.565,26.386,7.175,18.248A1.748,1.748,0,0,0,5.506,17H1.159A1.159,1.159,0,0,0,0,18.159V40.181A1.739,1.739,0,0,0,1.739,41.92Zm9.14-14.65-.046-.013-.4-.108L14.849,22l1.6,1.593-4.6,3.941ZM16.06,19.9l2.484,2.492-.835.827-2.488-2.492Zm-14.9-1.739H5.506a.584.584,0,0,1,.556.416l2.472,8.4a1.743,1.743,0,0,0,1.14,1.159L7.811,30.368l-3.836.548a.58.58,0,1,0,.165,1.147l3.683-.526,1.116,1.786L7.7,34.557a.579.579,0,1,0,.82.82l1.043-1.043.951,1.522a.581.581,0,1,0,.985-.614l-2.675-4.28L10.9,28.475l3.838,1.047a.576.576,0,0,1,.423.495l.391,3.519a1.731,1.731,0,0,0,1.523,1.535l13.547,1.565a.58.58,0,0,1,.413.253l2.582,3.872H1.739a.58.58,0,0,1-.58-.58Z" transform="translate(0 -7.147)" fill="#c9a484"/>
    <path id="Path_96678" data-name="Path 96678" d="M40.318,8.044l1.639-1.639a2.318,2.318,0,0,0,0-3.274L39.5.678a2.318,2.318,0,0,0-3.273,0L34.589,2.313l-.41-.406a1.739,1.739,0,0,0-2.458,0l-.819.818a1.746,1.746,0,0,0,0,2.454l.409.412L29.677,7.225a2.326,2.326,0,0,0,0,3.278l2.453,2.453a2.318,2.318,0,0,0,3.274,0l1.639-1.638,6.135,6.143a1.76,1.76,0,0,0,2.459,0l.811-.818a1.752,1.752,0,0,0,0-2.46ZM31.724,4.359a.583.583,0,0,1,0-.818l.816-.816a.58.58,0,0,1,.819,0l.409.406L32.13,4.769Zm2.862,7.777a1.159,1.159,0,0,1-1.635,0L30.5,9.684a1.166,1.166,0,0,1,0-1.641L37.048,1.5a1.159,1.159,0,0,1,1.635,0l2.459,2.453a1.159,1.159,0,0,1,0,1.634Zm11.047,3.682-.814.821a.58.58,0,0,1-.818,0L37.865,10.5,39.5,8.861,45.636,15a.58.58,0,0,1,0,.817Z" transform="translate(-12.194 0)" fill="#c9a484"/>
  </g>
</svg>
