<?xml version="1.0" encoding="UTF-8"?><svg id="Layer_1" xmlns="http://www.w3.org/2000/svg" width="40" height="40" viewBox="0 0 40 40"><defs><style>.cls-1{fill:#c9a585;}</style></defs><g id="sketch"><g id="Group_68748"><g id="Group_68747"><path id="Path_96675" class="cls-1" d="m33.38,27.15c-.19-.08-.41-.04-.56.11l-5.58,5.58c-.2.2-.2.52,0,.72.1.1.23.15.36.15h5.58c.28,0,.51-.23.51-.51h0v-5.58c0-.21-.12-.39-.32-.47Zm-4.54,5.54l3.83-3.83v3.83h-3.83Z"/></g></g><g id="Group_68750"><g id="Group_68749"><path id="Path_96676" class="cls-1" d="m37.07,18.97c-.19-.08-.41-.04-.56.11l-1.53,1.53v-10.39c0-.28-.23-.51-.51-.51h-3.92l1.42-1.42h0l1.37-1.37c.61-.61.61-1.59,0-2.2l-1.59-1.59c-.61-.61-1.59-.61-2.2,0l-1.37,1.37-1.66,1.66-3.55,3.55H7.14v-5.05c0-.28-.23-.51-.51-.51h0c-2.22,0-4.01,1.8-4.01,4.01v21.68s0,.07.01.11c.15,2.01,1.83,3.57,3.85,3.57h15.6l-2.94,2.94c-.2.2-.2.52,0,.72.1.1.23.15.36.15h17.37c.28,0,.51-.23.51-.51v-17.38c0-.21-.12-.39-.31-.47Zm-6.79-15.12c.21-.21.55-.21.76,0l1.59,1.59c.21.21.21.55,0,.76l-1.01,1.01-2.34-2.34,1.01-1.01Zm-1.73,1.73l2.34,2.34-.94.94-2.34-2.34.94-.94Zm7.81,19.6h-.94c-.28,0-.51.23-.51.51s.23.51.51.51h.94v1.54h-.94c-.28,0-.51.23-.51.51s.23.51.51.51h.94v1.54h-.94c-.28,0-.51.23-.51.51s.23.51.51.51h.94v1.53h-.94c-.28,0-.51.23-.51.51s.23.51.51.51h.94v2.43h-15.63l5.15-5.16c.2-.2.2-.52,0-.72s-.52-.2-.72,0l-2.07,2.07H6.48c-1.54,0-2.8-1.21-2.84-2.75,0-.1,0-.19.02-.29h0s.01-.09.02-.14h0c0-.06.02-.09.02-.13v-.03s.02-.07.03-.1v-.05s.03-.05.04-.08.02-.05.03-.08.01-.03.02-.05c.01-.03.03-.07.04-.1v-.03s.05-.08.07-.12h0c.4-.84,1.18-1.45,2.09-1.64h0s.09-.02.13-.02h.14s.03-.01.03-.01l.12-.02h.19c.28,0,.51-.23.51-.51h0v-3.7c0-.28-.23-.51-.51-.51s-.51.23-.51.51v3.22c-.87.11-1.67.5-2.29,1.11-.07.07-.13.13-.19.2V8.17c0-1.46,1.04-2.71,2.48-2.96v15.38h0c0,.28.23.51.51.51s.51-.23.51-.51h0v-9.86h14.83l-2.82,2.82c-.2.2-.2.52,0,.72s.52.2.72,0h0l3.69-3.69h0l3.34-3.34,2.34,2.34-.27.28h0l-10.29,10.29-2.34-2.34,2.03-2.03c.2-.2.2-.52,0-.72s-.52-.2-.72,0l-2.39,2.39s-.02.03-.04.04h-.01s-.02.04-.02.04v.02s-.03.03-.03.03v.02s-.02.03-.02.03h0s-1,2.83-1,2.83l-.68,1.92s-.02.05-.02.08h-1.7c-.28,0-.51.23-.51.51s.23.51.51.51h14.13c.28,0,.51-.23.51-.51s-.23-.51-.51-.51h-10.14l3.11-1.1h.04s.01-.02.01-.02l.04-.02h.01s.04-.03.04-.03h0s.03-.03.04-.04l10.5-10.5h4.43v10.9l-7.3,7.3c-.2.2-.2.52,0,.72h0s.03.02.04.04c.2.17.5.15.68-.03h0l8.98-8.98v4.51Zm-18.63-4.52l-1.46.52-.97-.97.52-1.46,1.92,1.92Z"/></g></g></g></svg>