<?xml version="1.0" encoding="utf-8"?>
<!-- Generator: Adobe Illustrator 27.4.0, SVG Export Plug-In . SVG Version: 6.00 Build 0)  -->
<svg version="1.1" id="Layer_1" xmlns="http://www.w3.org/2000/svg" xmlns:xlink="http://www.w3.org/1999/xlink" x="0px" y="0px"
	 viewBox="0 0 214 184" style="enable-background:new 0 0 214 184;" xml:space="preserve">
<style type="text/css">
	.st0{fill:#FFFFFF;}
	.st1{clip-path:url(#SVGID_00000125564842223604523230000011011635575484723841_);}
</style>
<rect y="2" class="st0" width="214" height="180"/>
<g transform="translate(608 4669)">
	<g>
		<defs>
			<rect id="SVGID_1_" x="-607" y="-4612" width="211.5" height="70.5"/>
		</defs>
		<clipPath id="SVGID_00000158013434333509806030000000674499204722061973_">
			<use xlink:href="#SVGID_1_"  style="overflow:visible;"/>
		</clipPath>
		<g style="clip-path:url(#SVGID_00000158013434333509806030000000674499204722061973_);">
			<path d="M-501.4-4592c3.8-1.4,6.4-4.1,6.4-8.4c0-6.6-6-9.5-13.7-9.5h-8.7v41.2h11.4c8.6,0,16.1-3.5,16.1-11.4
				C-489.8-4586.4-494.5-4590.7-501.4-4592 M-506.5-4571h-4.8v-36.6h3.2c5.7,0,7.6,2.8,7.6,6.9c0,0.7,0.5,7.5-5.1,8.7
				c2.3,0.6,4.4,1.7,6.2,3.2c2.2,2,3.5,5,3.3,8C-496.2-4574.9-499.4-4571-506.5-4571"/>
			<path d="M-604.1-4570c3,1.4,6.2,2.1,9.5,2.1c5.3,0,14.7-1.9,14.7-11.3c0-6.6-4.7-10.2-12.5-15.5c-3.6-2.6-8.5-5.2-8.5-9.4
				c0-3.5,3.2-5.6,7.7-5.6c3.2,0.1,6.2,1,8.9,2.7l-2.2-3.9c-2.1-0.8-4.3-1.2-6.6-1.1c-6,0-12.9,2.5-12.9,9.6c0,5.6,4.4,8.8,11.7,14
				c3.4,2.4,8.7,6.2,8.7,11c0,4.4-3.4,7.2-9,7.2c-4.6-0.1-8.9-1.9-12.4-4.9L-604.1-4570z"/>
			<path d="M-550.5-4568c-11,0-19.6-8.8-19.6-21.3c0-12.2,8.6-21.3,19.6-21.3s19.6,9.1,19.6,21.3
				C-530.9-4576.8-539.5-4568-550.5-4568 M-537-4589.3c0-11.2-5.4-19-13.5-19c-8.1,0-13.5,7.9-13.5,19c0,11.2,5.4,19,13.5,19
				C-542.4-4570.3-537-4578.1-537-4589.3"/>
			<path d="M-406.8-4580.8h-15.9l-5,12.1h-2.4l17.3-42.1l17.3,42.1h-6.3L-406.8-4580.8z M-421.7-4583.1h14l-7-17.1L-421.7-4583.1z"
				/>
			<path d="M-447.7-4609.9v16.9h-22.1v-16.9h-6v41.2h6v-22h22.1v22h6v-41.2H-447.7z"/>
			<path d="M-531.9-4541.5h-1.8v-9.3h4.5c2.1,0,3.2,1,3.2,2.6v0.5c0,1.2-0.8,2.3-2,2.5l2.4,3.7h-2l-2.3-3.5h-1.9V-4541.5z
				 M-531.9-4546.4h2.2c1.2,0,1.8-0.5,1.8-1.3v-0.4c0-0.8-0.5-1.3-1.7-1.3h-2.3V-4546.4z"/>
			<path d="M-514.5-4550.8v1.5h-5.2v2.4h4.1v1.4h-4.1v2.5h5.2v1.5h-7v-9.3L-514.5-4550.8z"/>
			<path d="M-505-4543.4h-4.1l-0.7,1.9h-1.8l3.7-9.4h2l3.6,9.4h-1.9L-505-4543.4z M-508.6-4544.8h3.1l-1.5-4.1h0L-508.6-4544.8z"/>
			<path d="M-496.7-4550.8v7.7h4.7v1.6h-6.5v-9.3H-496.7z"/>
			<path d="M-482-4550.8v1.6h-3.2v7.7h-1.8v-7.7h-3.1v-1.6H-482z"/>
			<path d="M-477.1-4550.8l2.5,4.2l2.4-4.2h2l-3.5,5.7v3.6h-1.8v-3.6l-3.5-5.7H-477.1z"/>
		</g>
	</g>
</g>
</svg>
