<svg xmlns="http://www.w3.org/2000/svg" width="29.238" height="37.292" viewBox="0 0 29.238 37.292">
  <path id="passport" d="M66.405,22.642h.007l.014,0h.01l.036,0h0a6.728,6.728,0,0,0,0-13.456h-.046l-.048,0-.028,0a6.724,6.724,0,0,0,.055,13.446Zm-5.166-4.424h1.529a7.686,7.686,0,0,0,1.822,3.1A5.744,5.744,0,0,1,61.239,18.218Zm10.953-2.3a5.7,5.7,0,0,1-.153,1.292H70.319a7.975,7.975,0,0,0,.111-1.3,7.857,7.857,0,0,0-.108-1.28H72.04A5.7,5.7,0,0,1,72.192,15.918Zm-2.771.013a6.833,6.833,0,0,1-.121,1.28H66.976V14.626H69.3A6.938,6.938,0,0,1,69.421,15.93Zm-5.589,2.288h2.136v2.988a6.709,6.709,0,0,1-2.136-2.988Zm3.144,2.911V18.218h2.047A6.713,6.713,0,0,1,66.976,21.129Zm0-7.511V10.707a6.7,6.7,0,0,1,2.045,2.911Zm-1.008-2.989v2.989H63.83A6.717,6.717,0,0,1,65.968,10.629Zm0,4V17.21H63.555a6.942,6.942,0,0,1-.123-1.3,6.836,6.836,0,0,1,.121-1.28ZM62.532,17.21H60.905a5.544,5.544,0,0,1,0-2.584h1.629a7.979,7.979,0,0,0-.111,1.3A7.87,7.87,0,0,0,62.532,17.21Zm5.675,4.157a7.681,7.681,0,0,0,1.876-3.149h1.623A5.745,5.745,0,0,1,68.207,21.367Zm3.5-7.749h-1.62a7.685,7.685,0,0,0-1.878-3.15A5.745,5.745,0,0,1,71.706,13.618Zm-7.115-3.1a7.682,7.682,0,0,0-1.82,3.1H61.239A5.744,5.744,0,0,1,64.591,10.522ZM84.213,6.616a2.792,2.792,0,0,0-1.642-1.391L66.626.134a2.819,2.819,0,0,0-3.534,1.824L62.034,5.272H58.1a2.816,2.816,0,0,0-2.812,2.813v26.4A2.815,2.815,0,0,0,58.1,37.292H74.841a2.815,2.815,0,0,0,2.812-2.812V29.873L84.4,8.76a2.793,2.793,0,0,0-.182-2.144ZM76.646,34.48a1.807,1.807,0,0,1-1.8,1.8H58.1a1.806,1.806,0,0,1-1.8-1.8V8.085a1.807,1.807,0,0,1,1.8-1.8H74.841a1.807,1.807,0,0,1,1.8,1.8ZM83.435,8.454,77.654,26.56V8.085a2.816,2.816,0,0,0-2.813-2.813H63.091l.96-3.007a1.811,1.811,0,0,1,2.268-1.17L82.265,6.186a1.812,1.812,0,0,1,1.17,2.268ZM73.27,26.542a.5.5,0,0,1-.5.5H60.179a.5.5,0,1,1,0-1.008H72.766A.5.5,0,0,1,73.27,26.542Zm0,3.557a.5.5,0,0,1-.5.5H60.179a.5.5,0,1,1,0-1.008H72.766A.5.5,0,0,1,73.27,30.1Zm-2.855,3.557a.5.5,0,0,1-.5.5H63.034a.5.5,0,1,1,0-1.008h6.877A.5.5,0,0,1,70.415,33.656Z" transform="translate(-55.291 0)" fill="#c9a484"/>
</svg>
