<?xml version="1.0" encoding="utf-8"?>
<!-- Generator: Adobe Illustrator 27.7.0, SVG Export Plug-In . SVG Version: 6.00 Build 0)  -->
<svg version="1.1" id="Layer_1" xmlns="http://www.w3.org/2000/svg" xmlns:xlink="http://www.w3.org/1999/xlink" x="0px" y="0px"
	 width="30px" height="30px" viewBox="0 0 30 30" style="enable-background:new 0 0 30 30;" xml:space="preserve">
<path d="M27.9,9.5c-0.3-1.1-0.7-2.2-1.3-3.1c-1.7-3.1-4.5-5.1-8-5.9C15-0.3,11.3,0.1,8.5,1.7C4.9,3.6,2.7,7.5,2.2,12.5
	c-0.3,3-0.7,13,7.4,16.4c1.7,0.7,3.7,1.1,5.7,1.1c1.8,0,3.6-0.3,5.2-0.9c2.8-1.1,5.1-3.4,5.9-6c1.2-4-0.5-7.9-4.3-9.6
	c-0.3-2.7-1.3-4.6-3-5.7c-1.3-0.8-3.1-1.1-4.8-0.9C12.3,7.1,10.7,8,9.6,9.7c-0.2,0.3-0.1,0.6,0.2,0.8l1.9,1.3
	c0.3,0.2,0.6,0.1,0.8-0.1c0.5-0.7,1.2-1.2,2.1-1.3c1-0.1,2.7-0.1,3.5,1.5c0.1,0.1,0.1,0.3,0.2,0.5c-0.9-0.1-1.9-0.1-2.9-0.1
	c-2.8,0.1-5,1.4-5.8,3.4c-1,2.3-0.2,5,1.9,6.3c2.7,1.7,6.4,1.3,8.5-0.8c0.6-0.7,1.1-1.5,1.5-2.4c0.1-0.4,0.3-0.8,0.4-1.3
	c0.4,0.3,0.7,0.7,1,1.2c0.6,1.1,0.6,2.6,0,3.9c-0.9,2-3.2,3.2-5,3.6c-1.4,0.3-2.9,0.3-4.4,0.1c-2.9-0.4-5.1-1.9-6.3-4.3
	c-1.4-2.7-1.8-6.5-1.1-10.3C6.4,8.5,8,4.8,13,3.9c3.2-0.6,7.5,0,9.9,3.2c0.7,1,1.2,2.1,1.6,3.3c0.1,0.3,0.4,0.5,0.7,0.4l2.3-0.6
	C27.8,10.2,28,9.8,27.9,9.5z M14.1,19.4c-0.6-0.1-1-0.5-1.3-0.9c-0.2-0.3-0.2-0.7-0.1-1.1c0.3-0.9,1.4-1.3,2.3-1.4
	c0.4,0,0.9-0.1,1.3-0.1c0.7,0,1.4,0.1,2,0.2c-0.1,0.7-0.2,1.3-0.5,1.9C17.2,19.5,15.5,19.7,14.1,19.4z"/>
</svg>
