<?xml version="1.0" encoding="utf-8"?>
<!-- Generator: Adobe Illustrator 27.7.0, SVG Export Plug-In . SVG Version: 6.00 Build 0)  -->
<svg version="1.1" id="Layer_1" xmlns="http://www.w3.org/2000/svg" xmlns:xlink="http://www.w3.org/1999/xlink" x="0px" y="0px"
	 width="45px" height="45px" viewBox="0 0 45 45" style="enable-background:new 0 0 45 45;" xml:space="preserve">
<style type="text/css">
	.st0{fill:#FFFFFF;}
</style>
<circle cx="22.5" cy="22.5" r="22.5"/>
<g id="Group_2" transform="translate(0 0)">
	<path id="Path_4" class="st0" d="M23,29.5c-0.4,0.5-0.8,0.9-1,1.1c-1.7-1.8-6.3-7.1-6.3-10.7c0-3.5,2.8-6.3,6.3-6.3
		s6.3,2.8,6.3,6.3c-0.1,1.5-0.6,2.9-1.4,4.2l1.6,0.5c0.8-1.4,1.3-3,1.4-4.7c0-4.4-3.6-8-8-8s-8,3.6-8,8c0,0,0,0,0,0
		c0,5,7.1,12.2,7.4,12.5L22,33l0.6-0.6c0.1-0.1,0.5-0.5,1-1.1L23,29.5z"/>
	<path id="Path_5" class="st0" d="M22,16.2c-2.1,0-3.8,1.7-3.8,3.8c0,2.1,1.7,3.8,3.8,3.8l0,0c2.1,0,3.8-1.7,3.8-3.8
		S24.1,16.2,22,16.2C22,16.2,22,16.2,22,16.2 M23.5,21.5c-0.8,0.8-2.2,0.8-3.1,0s-0.8-2.2,0-3.1c0.8-0.8,2.2-0.8,3.1,0
		c0.4,0.4,0.6,1,0.6,1.5C24.2,20.5,23.9,21.1,23.5,21.5"/>
	<path id="Path_6" class="st0" d="M26.2,32.9c-0.3,0-0.5-0.2-0.6-0.5l-2.4-6.7c-0.1-0.4,0.1-0.7,0.4-0.9c0.1-0.1,0.3-0.1,0.4,0
		l6.5,2.2c0.4,0.1,0.5,0.5,0.4,0.9c-0.1,0.2-0.2,0.4-0.4,0.4l-2.9,1l-0.8,3.1C26.8,32.7,26.5,32.9,26.2,32.9L26.2,32.9z M24.9,26.6
		l1.1,3.3l0.3-1.2c0.1-0.2,0.2-0.4,0.4-0.5l1.3-0.4L24.9,26.6z"/>
</g>
</svg>
