<?xml version="1.0" encoding="utf-8"?>
<!-- Generator: Adobe Illustrator 27.7.0, SVG Export Plug-In . SVG Version: 6.00 Build 0)  -->
<svg version="1.1" id="Group_1" xmlns="http://www.w3.org/2000/svg" xmlns:xlink="http://www.w3.org/1999/xlink" x="0px" y="0px"
	 width="30px" height="30px" viewBox="0 0 30 30" style="enable-background:new 0 0 30 30;" xml:space="preserve">
<g id="Group_2" transform="translate(0 0)">
	<path id="Path_4" d="M15.7,24.7c-0.6,0.6-1,1.2-1.4,1.6c-2.3-2.5-8.7-9.8-8.7-14.8c0-4.8,3.9-8.7,8.7-8.7S23,6.7,23,11.5
		c-0.2,2-0.8,4-1.9,5.7l2.2,0.7c1.2-2,1.8-4.2,2-6.4c0-6.1-4.9-11-11-11c-6.1,0-11,4.9-11,11c0,0,0,0,0,0c0,7,9.8,16.8,10.2,17.2
		l0.8,0.8l0.8-0.8c0.1-0.1,0.7-0.7,1.4-1.5L15.7,24.7z"/>
	<path id="Path_5" d="M14.3,6.3c-2.9,0-5.2,2.3-5.2,5.2c0,2.9,2.3,5.2,5.2,5.2l0,0c2.9,0,5.2-2.3,5.2-5.2S17.2,6.3,14.3,6.3
		C14.3,6.3,14.3,6.3,14.3,6.3 M16.4,13.6c-1.2,1.2-3,1.2-4.2,0s-1.2-3,0-4.2s3-1.2,4.2,0c0.6,0.6,0.9,1.3,0.9,2.1
		C17.3,12.3,17,13,16.4,13.6"/>
	<path id="Path_6" d="M20.1,29.3c-0.4,0-0.8-0.3-0.9-0.6l-3.3-9.3c-0.2-0.5,0.1-1,0.6-1.2c0.2-0.1,0.4-0.1,0.6,0l8.9,3.1
		c0.5,0.2,0.8,0.7,0.6,1.2c-0.1,0.3-0.3,0.5-0.6,0.6l-4,1.3L21,28.6C20.9,29,20.5,29.3,20.1,29.3L20.1,29.3z M18.4,20.6l1.6,4.5
		l0.4-1.7c0.1-0.3,0.3-0.6,0.6-0.7l1.8-0.6L18.4,20.6z"/>
</g>
</svg>
