<svg xmlns="http://www.w3.org/2000/svg" width="163.013" height="59"><defs><clipPath id="a"><path data-name="Rectangle 9653" fill="#fff" d="M0 0h163.013v59H0z"/></clipPath></defs><g data-name="Group 23963"><g data-name="Group 23962" clip-path="url(#a)" fill="#fff"><path data-name="Path 81246" d="M81.407 15.375c2.937-1.073 4.967-3.156 4.967-6.454 0-5.1-4.661-7.288-10.578-7.288h-6.738v31.756h8.807c6.663 0 12.443-2.7 12.443-8.822 0-4.841-3.611-8.162-8.9-9.191m-3.962 16.236h-3.727V3.41h2.445c4.381 0 5.848 2.129 5.848 5.332 0 .533.356 5.772-3.949 6.725a11.36 11.36 0 0 1 4.8 2.473 7.717 7.717 0 0 1 2.53 6.167c0 4.443-2.446 7.506-7.944 7.506"/><path data-name="Path 81247" d="M2.212 32.329A16.636 16.636 0 0 0 9.5 33.937c4.106 0 11.339-1.474 11.339-8.676 0-5.047-3.647-7.884-9.654-11.956-2.779-1.974-6.565-3.97-6.565-7.218 0-2.7 2.5-4.318 5.954-4.318a13.071 13.071 0 0 1 6.838 2.079L15.7.864A13.168 13.168 0 0 0 10.626 0C6.039 0 .679 1.94.679 7.405c0 4.323 3.4 6.765 9.045 10.81 2.619 1.863 6.735 4.814 6.735 8.439 0 3.4-2.656 5.516-6.932 5.516A14.988 14.988 0 0 1 0 28.411Z"/><path data-name="Path 81248" d="M43.542 33.934c-8.5 0-15.091-6.779-15.091-16.425 0-9.41 6.595-16.423 15.091-16.423s15.071 7.013 15.071 16.425c0 9.647-6.574 16.425-15.071 16.425m10.41-16.425c0-8.6-4.172-14.654-10.411-14.654S33.132 8.914 33.132 17.511c0 8.644 4.172 14.654 10.411 14.654s10.409-6.01 10.409-14.654"/><path data-name="Path 81249" d="M154.297 24.068h-12.262l-3.821 9.321h-1.818L149.706.928l13.307 32.461h-4.895Zm-11.535-1.771h10.813l-5.407-13.213Z"/><path data-name="Path 81250" d="M122.777 1.641v13.043h-17.033V1.641h-4.661V33.39h4.661V16.454h17.033V33.39h4.661V1.641Z"/><path data-name="Path 81251" d="M50.491 58.999h-1.885v-9.651h4.623c2.189 0 3.291 1.058 3.291 2.738v.523a2.613 2.613 0 0 1-2.1 2.594l2.478 3.8H54.81l-2.334-3.638h-1.985Zm0-5.087h2.319c1.231 0 1.826-.522 1.826-1.347v-.392c0-.87-.508-1.334-1.754-1.334h-2.391Z"/><path data-name="Path 81252" d="M68.502 49.348v1.565H63.07v2.449h4.232v1.477H63.07v2.594h5.432v1.566H61.23v-9.651Z"/><path data-name="Path 81253" d="M78.331 56.984h-4.276l-.754 2.015h-1.9l3.784-9.724h2.086l3.783 9.724h-1.97Zm-3.739-1.419h3.2l-1.593-4.231h-.03Z"/><path data-name="Path 81254" d="M86.972 49.348v8.015h4.826V59h-6.709v-9.652Z"/><path data-name="Path 81255" d="M102.19 49.348v1.622h-3.274V59h-1.885v-8.03h-3.262v-1.622Z"/><path data-name="Path 81256" d="m107.291 49.348 2.551 4.348 2.521-4.348h2.044l-3.681 5.957v3.7h-1.884v-3.7l-3.666-5.957Z"/></g></g></svg>