<svg xmlns="http://www.w3.org/2000/svg" width="34.041" height="34.068" viewBox="0 0 34.041 34.068">
  <path id="planet-earth" d="M33.863,3.97a13.707,13.707,0,0,0-1.188-2.7.509.509,0,0,0-.539-.227,13.7,13.7,0,0,0-2.766,1.032,7.941,7.941,0,0,0-3.963,3.78A7.323,7.323,0,0,0,25.18,10.3a14.152,14.152,0,0,0-2.661-2.316,20.614,20.614,0,0,0-2.313-3.545.5.5,0,0,0-.775.629,19.982,19.982,0,0,1,1.841,2.709l-4.546-.886L12.408,1a7.041,7.041,0,0,1,1.259.129,8.619,8.619,0,0,1,3.9,2.009.5.5,0,0,0,.647-.76A9.6,9.6,0,0,0,13.859.146a11.463,11.463,0,0,0-7.713,1.7,19.925,19.925,0,0,0-3.49,2.493.528.528,0,0,0-.059.685A20.363,20.363,0,0,0,4.835,8.537a15.606,15.606,0,0,0,2.359,2.425q-.349.292-.678.613a11.538,11.538,0,0,0,3.733,18.937.5.5,0,0,0,.375-.925A10.536,10.536,0,0,1,8.466,28.4a5.623,5.623,0,0,0-.847-3.936c-.158-.246.315-1.214.6-1.792a9.357,9.357,0,0,0,.733-1.792,1.366,1.366,0,0,0-.486-1.5,3.683,3.683,0,0,0-1.186-.526,2.553,2.553,0,0,1-.652-.255,6.653,6.653,0,0,1-.845-1.375,8.532,8.532,0,0,0-.912-1.5,10.613,10.613,0,0,1,3.15-4.151,8.729,8.729,0,0,0,4.205,1.563c-1.764,1.367-2.334,3.112-1.519,4.788.952,1.957,2.913,1.645,4.642,1.369.3-.048.609-.1.905-.134.111-.014.145.016.167.036.379.337.367,1.946.359,3.12-.011,1.625-.021,3.16.584,3.948a1.523,1.523,0,0,0,1.253.607,2.516,2.516,0,0,0,.985-.223c1.505-.645,3.07-2.585,2.831-4.12a5.418,5.418,0,0,1-.021-2.943,5.276,5.276,0,0,1,2.461-2.055A10.539,10.539,0,0,1,13.419,30.292a.5.5,0,0,0-.109.992,11.6,11.6,0,0,0,9.341-3.22,11.53,11.53,0,0,0-1.775-17.909c.659-.47,1.15-.877,1.423-1.113A13.251,13.251,0,1,1,1.513,17.661.5.5,0,0,0,.529,17.5,14.244,14.244,0,0,0,12.263,33.874a14.442,14.442,0,0,0,2.352.194A14.254,14.254,0,0,0,27.65,14.134a14.373,14.373,0,0,0,2.3-.906,7.941,7.941,0,0,0,3.963-3.78,7.937,7.937,0,0,0-.051-5.477ZM4.9,17.693a6.215,6.215,0,0,0,1.087,1.675,2.862,2.862,0,0,0,1,.444c.975.3,1.089.447,1,.833a8.711,8.711,0,0,1-.659,1.588c-.515,1.055-1,2.05-.541,2.77a4.747,4.747,0,0,1,.755,2.648A10.637,10.637,0,0,1,4.458,16.888c.147.252.3.544.439.805ZM29.043,7.886,27.625,4.448A9.34,9.34,0,0,1,29.8,2.975a13.321,13.321,0,0,1,1.577-.664ZM32.295,2.7a13.388,13.388,0,0,1,.624,1.6A9.542,9.542,0,0,1,33.371,6.7L30.047,8.071ZM26.328,6.241a4.753,4.753,0,0,1,.557-.969L28.5,9.185l-1.449,3.465a13.25,13.25,0,0,1-.647-1.644,7.14,7.14,0,0,1-.076-4.765Zm3.2,6.083A13.26,13.26,0,0,1,28,12.971l1.5-3.595L33.329,7.8A4.815,4.815,0,0,1,33,9.059a7.139,7.139,0,0,1-3.47,3.266Zm-18-.284c-.176-.035-.35-.077-.522-.125l5.524-4.049,4.548.886c-1.657,1.305-5.689,4.044-9.55,3.287ZM6.481,8.918A19.43,19.43,0,0,1,3.937,5.412L9.725,6.54ZM7.5,2.259l2.422,3.3L4.1,4.427A19.674,19.674,0,0,1,7.5,2.259Zm3.865,3.585-2.936-4a11.226,11.226,0,0,1,2.789-.772l4.061,5.539Zm-.311.956,4.139.807L9.885,11.5A10.326,10.326,0,0,1,7.193,9.634ZM24.6,16.546c-1.8.959-2.68,1.711-3.1,2.63a6.074,6.074,0,0,0-.057,3.51c.135.864-.892,2.473-2.238,3.049-.5.213-.852.188-1.054-.075-.4-.516-.386-2.078-.377-3.333.012-1.736.022-3.236-.694-3.873a1.176,1.176,0,0,0-.953-.281c-.314.039-.632.09-.94.139-1.835.292-2.989.409-3.587-.82-.969-1.991.992-3.466,1.881-4.008a3.162,3.162,0,0,0,.5-.385,14.51,14.51,0,0,0,5.983-2.332A10.594,10.594,0,0,1,24.6,16.546Zm0,0" transform="translate(-0.335)" fill="#c9a484"/>
</svg>
