<svg xmlns="http://www.w3.org/2000/svg" width="32.927" height="34.969" viewBox="0 0 32.927 34.969">
  <g id="tax" transform="translate(-14.983)">
    <path id="Path_96646" data-name="Path 96646" d="M269.637,113.367a.526.526,0,0,0,.71-.136l6.143-9.05a.511.511,0,1,0-.846-.574l-6.143,9.05A.511.511,0,0,0,269.637,113.367Z" transform="translate(-237.085 -96.335)" fill="#c9a484"/>
    <path id="Path_96647" data-name="Path 96647" d="M344.4,186.457a2.188,2.188,0,0,0,1.93-2.372c-.109-3.148-3.751-3.147-3.859,0A2.188,2.188,0,0,0,344.4,186.457Zm0-3.721c.492,0,.907.618.907,1.349s-.415,1.349-.907,1.349-.907-.618-.907-1.349S343.91,182.736,344.4,182.736Z" transform="translate(-305.164 -169.337)" fill="#c9a484"/>
    <path id="Path_96648" data-name="Path 96648" d="M247.721,105.755a2.188,2.188,0,0,0-1.93-2.372c-2.559.126-2.558,4.618,0,4.743A2.188,2.188,0,0,0,247.721,105.755Zm-2.837,0c0-.731.415-1.349.907-1.349s.907.618.907,1.349-.415,1.349-.907,1.349S244.885,106.486,244.885,105.755Z" transform="translate(-213.287 -96.336)" fill="#c9a484"/>
    <path id="Path_96649" data-name="Path 96649" d="M32.241,23.582c12.548,3.74,21.235-11.969,11.464-20.648a.511.511,0,1,0-.667.775c9.07,8.08.75,22.6-10.8,18.8V19.03c0-.438-.265-1.055-1.528-1.506a9.89,9.89,0,0,0-4.608-.347c-4.821-9.411,5.046-19.6,14.582-15.019a.511.511,0,0,0,.449-.919C30.85-3.718,20.1,7.12,25.067,17.387c-.153.042-.3.087-.439.137-1.263.451-1.528,1.068-1.528,1.506v3.4a8.272,8.272,0,0,0-3.541-.668.511.511,0,0,0,0,1.023,8.338,8.338,0,0,1,2.694.4c.7.25.848.5.848.542s-.148.293-.849.543a8.572,8.572,0,0,1-5.4,0c-.7-.251-.849-.5-.849-.543s.179-.338,1.032-.6a.511.511,0,0,0-.3-.976c-1.447.451-1.75,1.108-1.75,1.58v9.243c0,.438.265,1.055,1.528,1.506a9.6,9.6,0,0,0,6.084,0,3.336,3.336,0,0,0,1.017-.541,3.335,3.335,0,0,0,1.017.541,9.6,9.6,0,0,0,6.084,0,3.336,3.336,0,0,0,1.017-.541,3.335,3.335,0,0,0,1.017.541,9.6,9.6,0,0,0,6.084,0c1.263-.451,1.528-1.068,1.528-1.506V28.347c0-.438-.265-1.055-1.528-1.506a9.6,9.6,0,0,0-6.084,0,4.436,4.436,0,0,0-.506.214c0-.666,0-2.644,0-3.34,0-.018,0-.113,0-.133Zm7.1,7.075c0,.039-.148.293-.849.543a8.572,8.572,0,0,1-5.4,0c-.7-.251-.849-.5-.849-.543V29.638a4.448,4.448,0,0,0,.506.214,9.6,9.6,0,0,0,6.084,0,4.434,4.434,0,0,0,.506-.214Zm-8.118-9.316c0,.039-.148.293-.849.543a8.572,8.572,0,0,1-5.4,0c-.7-.251-.849-.5-.849-.543V20.322a4.448,4.448,0,0,0,.506.214,9.6,9.6,0,0,0,6.084,0,4.435,4.435,0,0,0,.506-.214Zm-6.59,1.506a9.322,9.322,0,0,0,6.59-.214v1.056c0,.039-.148.293-.849.543a8.573,8.573,0,0,1-5.4,0c-.7-.251-.849-.5-.849-.543V22.633A4.444,4.444,0,0,0,24.629,22.847Zm-1.528,5.5c0,.039-.148.293-.849.543a8.572,8.572,0,0,1-5.4,0c-.7-.251-.849-.5-.849-.543V27.328a4.447,4.447,0,0,0,.506.214,9.6,9.6,0,0,0,6.084,0,4.435,4.435,0,0,0,.506-.214Zm-7.1,1.292a4.447,4.447,0,0,0,.506.214,9.6,9.6,0,0,0,6.084,0,4.435,4.435,0,0,0,.506-.214v1.019c0,.039-.148.293-.849.543a8.572,8.572,0,0,1-5.4,0c-.7-.251-.849-.5-.849-.543Zm8.118,0a4.447,4.447,0,0,0,.506.214,9.6,9.6,0,0,0,6.084,0,4.435,4.435,0,0,0,.506-.214v1.019c0,.039-.148.293-.849.543a8.572,8.572,0,0,1-5.4,0c-.7-.251-.849-.5-.849-.543Zm6.246-.749a8.573,8.573,0,0,1-5.4,0c-.7-.251-.849-.5-.849-.543V27.328a4.447,4.447,0,0,0,.506.214,9.6,9.6,0,0,0,6.084,0,4.435,4.435,0,0,0,.506-.214v1.019C31.218,28.386,31.071,28.639,30.369,28.89Zm.849-2.854c0,.039-.148.293-.849.543a8.573,8.573,0,0,1-5.4,0c-.7-.251-.849-.5-.849-.543V24.98a4.448,4.448,0,0,0,.506.214,9.6,9.6,0,0,0,6.084,0,4.435,4.435,0,0,0,.506-.214Zm-6.246-7.549a8.575,8.575,0,0,1,5.4,0c.7.251.849.5.849.543s-.148.293-.849.543a8.573,8.573,0,0,1-5.4,0c-.7-.251-.849-.5-.849-.543S24.271,18.738,24.973,18.487Zm-8.461,6.744a9.322,9.322,0,0,0,6.589-.214v1.019c0,.039-.148.293-.849.543a8.572,8.572,0,0,1-5.4,0c-.7-.251-.849-.5-.849-.543V25.017A4.438,4.438,0,0,0,16.511,25.231Zm5.74,8.28a8.572,8.572,0,0,1-5.4,0c-.7-.251-.849-.5-.849-.543V31.949a9.139,9.139,0,0,0,7.1,0v1.019C23.1,33.008,22.953,33.261,22.251,33.511Zm8.118,0a8.573,8.573,0,0,1-5.4,0c-.7-.251-.849-.5-.849-.543V31.949a9.139,9.139,0,0,0,7.1,0v1.019C31.218,33.008,31.071,33.261,30.369,33.511Zm8.118,0a8.572,8.572,0,0,1-5.4,0c-.7-.251-.849-.5-.849-.543V31.949a9.139,9.139,0,0,0,7.1,0v1.019C39.336,33.008,39.188,33.261,38.487,33.511ZM33.09,27.8a8.572,8.572,0,0,1,5.4,0c.7.251.849.5.849.543s-.148.293-.849.543a8.572,8.572,0,0,1-5.4,0c-.7-.251-.849-.5-.849-.543S32.389,28.054,33.09,27.8Z" transform="translate(0 0)" fill="#c9a484"/>
  </g>
</svg>
