<svg xmlns="http://www.w3.org/2000/svg" width="15.566" height="17.959" viewBox="0 0 15.566 17.959">
  <path id="Path_1" data-name="Path 1" d="M36.377,3.872a4.066,4.066,0,0,1-.354-.206,4.957,4.957,0,0,1-.907-.771A4.287,4.287,0,0,1,34.093.783h0a2.551,2.551,0,0,1-.041-.752H30.972V11.958c0,.16,0,.318-.007.474,0,.02,0,.037,0,.059v.033A2.622,2.622,0,0,1,29.642,14.6a2.618,2.618,0,1,1-.476-4.775l0-3.14a5.733,5.733,0,0,0-4.416,1.291,6.093,6.093,0,0,0-1.32,1.629,5.663,5.663,0,0,0-.681,2.591,6.116,6.116,0,0,0,.331,2.048v.007a6.035,6.035,0,0,0,.838,1.528,6.3,6.3,0,0,0,1.336,1.26v-.008l.007.008a5.782,5.782,0,0,0,3.149.949,5.575,5.575,0,0,0,2.337-.517,5.878,5.878,0,0,0,1.9-1.427,5.94,5.94,0,0,0,1.034-1.718,6.468,6.468,0,0,0,.371-1.965V6.035c.037.023.536.353.536.353a7.182,7.182,0,0,0,1.838.76,10.65,10.65,0,0,0,1.886.258V4.344a4,4,0,0,1-1.939-.472" transform="translate(-22.75 -0.031)"/>
</svg>
