<?xml version="1.0" encoding="utf-8"?>
<!-- Generator: Adobe Illustrator 27.8.1, SVG Export Plug-In . SVG Version: 6.00 Build 0)  -->
<svg version="1.1" id="Layer_3" xmlns="http://www.w3.org/2000/svg" xmlns:xlink="http://www.w3.org/1999/xlink" x="0px" y="0px"
	 viewBox="0 0 55 60" style="enable-background:new 0 0 55 60;" xml:space="preserve">
<style type="text/css">
	.st0{fill:#C9A484;}
</style>
<g>
	<path class="st0" d="M28.4,35.9c1.5-0.4,2.6-1.7,2.6-3.3c0-1.9-1.5-3.4-3.4-3.4c-0.9,0-1.7-0.8-1.7-1.7c0-0.9,0.8-1.7,1.7-1.7
		s1.7,0.8,1.7,1.7h1.7c0-1.6-1.1-2.9-2.6-3.3v-1.8h-1.7v1.8c-1.5,0.4-2.6,1.7-2.6,3.3c0,1.9,1.5,3.4,3.4,3.4c0.9,0,1.7,0.8,1.7,1.7
		c0,0.9-0.8,1.7-1.7,1.7s-1.7-0.8-1.7-1.7h-1.7c0,1.6,1.1,2.9,2.6,3.3v1.8h1.7V35.9z"/>
	<path class="st0" d="M27.5,18.9c-6.1,0-11.1,5-11.1,11.1h1.7c0-5.2,4.2-9.4,9.4-9.4V18.9z"/>
	<path class="st0" d="M36.9,30c0,5.2-4.2,9.4-9.4,9.4v1.7c6.1,0,11.1-5,11.1-11.1H36.9z"/>
	<path class="st0" d="M18.6,9.6c-2.7,1.2-5.1,2.8-7.1,5l1.2,1.2c1.9-2,4.1-3.5,6.6-4.6L18.6,9.6z"/>
	<path class="st0" d="M22.2,8.4c-0.6,0.1-1.2,0.3-1.8,0.5l0.5,1.6c0.5-0.2,1.1-0.3,1.6-0.5L22.2,8.4z"/>
	<path class="st0" d="M25.7,7.8c-0.6,0-1.2,0.1-1.8,0.2l0.3,1.7c0.6-0.1,1.1-0.2,1.6-0.2L25.7,7.8z"/>
	<path class="st0" d="M27.5,5.2c6.6,0,12.8,2.6,17.5,7.3c0.3,0.3,0.9,0.3,1.2,0l1.8-1.8v6.5h-6.5l1.7-1.7c0.3-0.3,0.3-0.9,0-1.2
		c-4.2-4.2-9.8-6.5-15.7-6.5v1.7c5.2,0,10.1,1.9,13.9,5.4l-2.5,2.5c-0.2,0.2-0.3,0.6-0.2,0.9c0.1,0.3,0.4,0.5,0.8,0.5h9.4
		c0.5,0,0.9-0.4,0.9-0.9V8.6c0-0.3-0.2-0.7-0.5-0.8c-0.3-0.1-0.7-0.1-0.9,0.2l-2.6,2.6C40.7,6,34.3,3.5,27.5,3.5
		C12.9,3.5,1,15.4,1,30h1.7C2.7,16.3,13.8,5.2,27.5,5.2z"/>
	<path class="st0" d="M43.5,45.4l-1.2-1.2c-1.9,2-4.1,3.5-6.6,4.6l0.7,1.6C39.1,49.2,41.5,47.5,43.5,45.4z"/>
	<path class="st0" d="M32.8,51.6c0.6-0.1,1.2-0.3,1.8-0.5l-0.5-1.6c-0.5,0.2-1.1,0.3-1.6,0.5L32.8,51.6z"/>
	<path class="st0" d="M29.3,52.2c0.6,0,1.2-0.1,1.8-0.2l-0.3-1.7c-0.6,0.1-1.1,0.2-1.6,0.2L29.3,52.2z"/>
	<path class="st0" d="M52.3,30c0,13.7-11.1,24.8-24.8,24.8c-6.6,0-12.8-2.6-17.5-7.3c-0.3-0.3-0.9-0.3-1.2,0L7,49.3v-6.5h6.5
		l-1.7,1.7c-0.3,0.3-0.3,0.9,0,1.2c4.2,4.2,9.8,6.5,15.7,6.5v-1.7c-5.2,0-10.1-1.9-13.9-5.4l2.5-2.5c0.2-0.2,0.3-0.6,0.2-0.9
		c-0.1-0.3-0.4-0.5-0.8-0.5H6.1c-0.5,0-0.9,0.4-0.9,0.9v9.4c0,0.3,0.2,0.7,0.5,0.8c0.3,0.1,0.7,0.1,0.9-0.2l2.6-2.6
		c4.9,4.6,11.3,7.2,18.1,7.2C42.1,56.5,54,44.6,54,30H52.3z"/>
	<path class="st0" d="M42,30c0-8-6.5-14.5-14.5-14.5S13,22,13,30s6.5,14.5,14.5,14.5S42,38,42,30z M27.5,42.8
		c-7.1,0-12.8-5.8-12.8-12.8s5.8-12.8,12.8-12.8S40.3,22.9,40.3,30S34.6,42.8,27.5,42.8z"/>
</g>
</svg>
