<?xml version="1.0" encoding="utf-8"?>
<!-- Generator: Adobe Illustrator 27.7.0, SVG Export Plug-In . SVG Version: 6.00 Build 0)  -->
<svg version="1.1" id="Layer_1" xmlns="http://www.w3.org/2000/svg" xmlns:xlink="http://www.w3.org/1999/xlink" x="0px" y="0px"
	 width="86px" height="96px" viewBox="0 0 86 96" style="enable-background:new 0 0 86 96;" xml:space="preserve">
<style type="text/css">
	.st0{fill:#C9A485;}
</style>
<g id="_002-placeholder" transform="translate(-85.996)">
	<g id="Group_24382" transform="translate(117.15 7.746)">
		<g id="Group_24381">
			<path id="Path_81676" class="st0" d="M12,0.5c-1,0-1.9,0.8-1.9,1.8c0,1,0.8,1.9,1.8,1.9c1,0,1.9-0.8,1.9-1.8
				C13.9,1.3,13,0.5,12,0.5z"/>
		</g>
	</g>
	<g id="Group_24384" transform="translate(105.359 19.362)">
		<g id="Group_24383" transform="translate(0)">
			<path id="Path_81677" class="st0" d="M23.7-0.1c-7.2,0-12.9,5.8-12.9,13c0,7.1,5.7,12.8,12.7,12.9h0.1c7.2,0,12.9-5.8,12.9-13
				C36.5,5.8,30.8,0,23.7-0.1L23.7-0.1z M23.6,22.1L23.6,22.1c-5.2,0-9.3-4.2-9.3-9.3c0-5.1,4.2-9.2,9.3-9.2l0,0h0.1
				c5.1,0,9.2,4.2,9.2,9.3C32.9,18,28.7,22.2,23.6,22.1z"/>
		</g>
	</g>
	<g id="Group_24386" transform="translate(124.776 9.102)">
		<g id="Group_24385" transform="translate(0)">
			<path id="Path_81678" class="st0" d="M12.3,0.5c-1-0.3-2,0.2-2.4,1.1c-0.3,1,0.2,2,1.1,2.4c8.2,2.9,13.6,10.7,13.5,19.3
				c0,1,0.8,1.9,1.8,1.9c0,0,0,0,0,0h0c1,0,1.8-0.8,1.8-1.8C28.3,13.1,21.9,3.9,12.3,0.5z"/>
		</g>
	</g>
	<g id="Group_24388" transform="translate(85.996)">
		<g id="Group_24387" transform="translate(0)">
			<path id="Path_81679" class="st0" d="M54.3,70.4c12.3-15.8,20-24.1,20.1-37.9c0.3-17.4-13.5-31.7-30.9-32S11.9,14,11.6,31.4
				c0,0.2,0,0.4,0,0.6c-0.1,14.2,7.7,22.5,20.1,38.4c-12.3,1.8-20.1,6.5-20.1,12.1c0,3.8,3.5,7.2,9.9,9.6c5.8,2.2,13.5,3.4,21.6,3.4
				s15.8-1.2,21.6-3.4c6.4-2.4,9.9-5.8,9.9-9.6C74.4,76.9,66.7,72.3,54.3,70.4z M15.3,32C15.3,16.7,27.7,4.3,43,4.3
				s27.7,12.4,27.7,27.8c0,0.1,0,0.3,0,0.4c-0.1,13.2-8.3,21.3-21.3,38.2c-2.3,3-4.5,5.9-6.5,8.7c-2-2.8-4.1-5.6-6.5-8.7
				C23,53,15.2,45.5,15.3,32z M43,91.8c-15.9,0-27.7-4.9-27.7-9.2c0-3.2,7.1-7.3,19-8.7c2.6,3.5,4.9,6.6,7.2,9.8
				c0.3,0.5,0.9,0.8,1.5,0.8l0,0c0.6,0,1.2-0.3,1.5-0.8c2.2-3.2,4.6-6.4,7.2-9.8c11.9,1.4,19,5.5,19,8.7
				C70.7,86.9,58.9,91.8,43,91.8L43,91.8z"/>
		</g>
	</g>
</g>
</svg>
