<?xml version="1.0" encoding="utf-8"?>
<!-- Generator: Adobe Illustrator 27.8.1, SVG Export Plug-In . SVG Version: 6.00 Build 0)  -->
<svg version="1.1" id="Capa_1" xmlns="http://www.w3.org/2000/svg" xmlns:xlink="http://www.w3.org/1999/xlink" x="0px" y="0px"
	 viewBox="0 0 55 60" style="enable-background:new 0 0 55 60;" xml:space="preserve">
<style type="text/css">
	.st0{fill:#C9A484;}
</style>
<g>
	<g>
		<g>
			<path class="st0" d="M48.4,42.8c-0.9-0.7-2.2-0.5-2.9,0.4c-0.4,0.5-0.8,1-1.2,1.5c-0.8,0.9-0.7,2.2,0.2,2.9
				c0.4,0.3,0.9,0.5,1.4,0.5c0.6,0,1.1-0.2,1.5-0.7c0.5-0.6,1-1.1,1.4-1.7C49.5,44.8,49.3,43.5,48.4,42.8z"/>
			<path class="st0" d="M51.8,33.2c-1.1-0.2-2.2,0.5-2.5,1.6c-0.1,0.6-0.3,1.2-0.5,1.8c-0.3,1.1,0.3,2.2,1.4,2.6
				c0.2,0.1,0.4,0.1,0.6,0.1c0.9,0,1.7-0.6,2-1.5c0.2-0.7,0.4-1.4,0.6-2.2C53.6,34.5,52.9,33.4,51.8,33.2z"/>
			<path class="st0" d="M38.4,49.4c-0.5,0.3-1.1,0.6-1.7,0.8c-1,0.5-1.5,1.7-1,2.7c0.3,0.8,1.1,1.2,1.9,1.2c0.3,0,0.6-0.1,0.8-0.2
				c0.7-0.3,1.3-0.6,2-1c1-0.6,1.3-1.8,0.8-2.8C40.7,49.3,39.4,48.9,38.4,49.4z"/>
			<path class="st0" d="M25.4,13.5v15.6l-7.6,7.6c-0.8,0.8-0.8,2.1,0,2.9c0.4,0.4,0.9,0.6,1.5,0.6c0.5,0,1.1-0.2,1.5-0.6l8.2-8.2
				c0.4-0.4,0.6-0.9,0.6-1.5V13.5c0-1.1-0.9-2.1-2.1-2.1C26.4,11.5,25.4,12.4,25.4,13.5z"/>
			<path class="st0" d="M51.8,8c-1.1,0-2.1,0.9-2.1,2.1v5.7C45,8.3,36.6,3.6,27.5,3.6c-7,0-13.7,2.7-18.7,7.7
				c-5,5-7.7,11.6-7.7,18.7s2.7,13.7,7.7,18.7c5,5,11.6,7.7,18.7,7.7c0,0,0,0,0.1,0c0,0,0,0,0.1,0c0.7,0,1.5,0,2.2-0.1
				c1.1-0.1,2-1.1,1.9-2.2c-0.1-1.1-1.1-2-2.2-1.9c-0.6,0.1-1.3,0.1-1.9,0.1c0,0,0,0-0.1,0c0,0,0,0-0.1,0c-12.3,0-22.3-10-22.3-22.3
				s10-22.3,22.3-22.3c7.9,0,15.2,4.2,19.2,10.9H41c-1.1,0-2.1,0.9-2.1,2.1c0,1.1,0.9,2.1,2.1,2.1h6.3c1.3,0,2.4-0.4,3.4-1
				c0.1,0,0.1-0.1,0.2-0.1c1.8-1.2,3-3.2,3-5.5v-6.1C53.9,9,53,8,51.8,8z"/>
		</g>
	</g>
</g>
</svg>
